<?xml version="1.0" standalone="no"?>
<!DOCTYPE svg PUBLIC "-//W3C//DTD SVG 1.1//EN" "http://www.w3.org/Graphics/SVG/1.1/DTD/svg11.dtd" >
<svg>
<metadata>
Created by FontForge 20090622 at Mon Aug 31 05:49:55 2015
 By deploy user
 The digitally encoded machine readable software for producing the  Typefaces licensed to you is copyrighted (c) 1988, 1990, 1993 Adobe Systems.  All Rights Reserved. This software is the property of Adobe Systems  Incorporated and its licensors, and may not be reproduced, used,   displayed, modified, disclosed or transferred without the express   written approval of Adobe.    The digitally encoded machine readable outline data for producing  the Typefaces licensed to you is copyrighted (c) 1981 Linotype-Hell AG  and/or its subsidiaries. All Rights Reserved.  This data is the property of Linotype-Hell AG and/or its subsidiaries  and may not be reproduced, used, displayed, modified, disclosed or   transferred without the express written approval of Linotype-Hell AG   and/or its subsidiaries. 12 pt Helvetica* 55 Roman 05472 
</metadata>
<defs>
<font id="HelveticaNeueLT-Roman" horiz-adv-x="556" >
  <font-face 
    font-family="HelveticaNeue LT 55 Roman"
    font-weight="400"
    font-stretch="normal"
    units-per-em="1000"
    panose-1="2 0 5 3 4 0 0 2 0 4"
    ascent="800"
    descent="-200"
    x-height="517"
    cap-height="714"
    bbox="-166 -214 1076 952"
    underline-thickness="50"
    underline-position="-75"
    unicode-range="U+0020-U+FB02"
  />
<missing-glyph horiz-adv-x="500" 
d="M442 8v496h-384v-496h384zM50 512h400v-512h-400v512z" />
    <glyph glyph-name=".notdef" horiz-adv-x="500" 
d="M442 8v496h-384v-496h384zM50 512h400v-512h-400v512z" />
    <glyph glyph-name="space" unicode=" " horiz-adv-x="278" 
 />
    <glyph glyph-name="space" unicode="&#xa0;" horiz-adv-x="278" 
 />
    <glyph glyph-name="exclam" unicode="!" horiz-adv-x="259" 
d="M177 714h-95v-220l25 -311h45l25 311v220zM74 0h111v111h-111v-111z" />
    <glyph glyph-name="quotedbl" unicode="&#x22;" horiz-adv-x="426" 
d="M109 456h68v258h-68v-258zM249 456h68v258h-68v-258z" />
    <glyph glyph-name="numbersign" unicode="#" 
d="M102 0h69l29 206h124l-29 -206h69l29 206h101v68h-91l21 150h98v68h-89l29 205h-69l-29 -205h-124l29 205h-69l-29 -205h-111v-68h102l-21 -150h-107v-68h97zM355 424l-21 -150h-124l21 150h124z" />
    <glyph glyph-name="dollar" unicode="$" 
d="M251 417q-25 7 -46 16t-36.5 21.5t-24 30.5t-8.5 45q0 57 33.5 86.5t81.5 34.5v-234zM306 314q27 -8 51 -17.5t41 -23.5t27 -34t10 -48q0 -32 -9.5 -55.5t-27 -38.5t-41 -23.5t-51.5 -10.5v251zM25 218q8 -104 67.5 -164.5t158.5 -70.5v-82h55v82q48 4 88 20t69 44
t45.5 66.5t16.5 86.5q0 46 -17.5 79t-42.5 55t-52.5 34.5t-46.5 17.5l-60 16v246q92 -17 112 -116h85q-20 87 -68 137.5t-129 60.5v67h-55v-66q-43 -3 -80.5 -19t-65 -43.5t-43.5 -65t-16 -82.5q0 -44 12 -75t37.5 -53t64 -37t91.5 -28v-265q-60 10 -99.5 49t-41.5 106h-85z
" />
    <glyph glyph-name="percent" unicode="%" horiz-adv-x="1000" 
d="M188 -22h86l537 744h-85zM586 186q0 -41 8.5 -77t27.5 -63t50 -42.5t76 -15.5q43 0 73.5 17t50 44.5t28 64t8.5 75.5q0 41 -7.5 77.5t-26 63.5t-49.5 43t-77 16t-77 -16.5t-50 -44.5t-27 -65t-8 -77zM661 188q0 22 3 48t12.5 47.5t26.5 36t45 14.5t45 -14.5t26 -36
t11.5 -47t2.5 -47.5q0 -23 -3 -49t-12.5 -47.5t-27 -35.5t-45.5 -14t-44.5 14.5t-25.5 36t-11.5 47t-2.5 47.5zM92 506q0 -41 8.5 -77t27.5 -63t50 -42.5t76 -15.5q43 0 73.5 17t50 44.5t28 64t8.5 75.5q0 41 -7.5 77.5t-26 63.5t-49.5 43t-77 16t-77 -16.5t-50 -44.5
t-27 -65t-8 -77zM167 508q0 22 3 48t12.5 47.5t26.5 36t45 14.5t45 -14.5t26 -36t11.5 -47t2.5 -47.5q0 -23 -3 -49t-12.5 -47.5t-27 -35.5t-45.5 -14t-44.5 14.5t-25.5 36t-11.5 47t-2.5 47.5z" />
    <glyph glyph-name="ampersand" unicode="&#x26;" horiz-adv-x="630" 
d="M411 148q-26 -39 -64.5 -62t-87.5 -23q-26 0 -50.5 9t-43.5 24.5t-30.5 38t-11.5 49.5q0 32 10 55.5t27 42.5t39.5 34t47.5 29zM534 0h111l-139 161l19 42.5t13.5 37.5t9 41.5t6.5 54.5h-81q-3 -57 -23 -111l-129 157q26 15 50 33.5t43 41.5t30 50.5t11 59.5
q0 36 -14.5 63.5t-38.5 46t-55.5 27.5t-64.5 9q-39 0 -69 -12t-50.5 -32.5t-31 -47t-10.5 -55.5q0 -27 6.5 -49t18 -41t25.5 -38l29 -40q-34 -18 -64.5 -38.5t-53 -46t-36 -57.5t-13.5 -74q0 -22 7.5 -55t31.5 -64t68 -53.5t116 -22.5q29 0 58.5 6.5t56 19t49 31.5t38.5 44z
M275 439l-24 30t-22 30.5t-16.5 31.5t-6.5 32q0 39 26 57.5t56 18.5q38 0 60 -22.5t22 -53.5q0 -23 -9 -41.5t-23 -33.5t-31 -27z" />
    <glyph glyph-name="quotesingle" unicode="'" horiz-adv-x="278" 
d="M105 456h68v258h-68v-258z" />
    <glyph glyph-name="parenleft" unicode="(" horiz-adv-x="259" 
d="M269 -198q-71 115 -101.5 228.5t-30.5 239.5q0 122 30 235t102 226h-65q-77 -103 -117 -223t-40 -238q0 -131 42.5 -243.5t114.5 -224.5h65z" />
    <glyph glyph-name="parenright" unicode=")" horiz-adv-x="259" 
d="M55 -198q77 103 117 223t40 238q0 66 -11 126t-31.5 117.5t-49.5 113t-65 111.5h-65q71 -115 101.5 -228.5t30.5 -239.5q0 -122 -30 -235t-102 -226h65z" />
    <glyph glyph-name="asterisk" unicode="*" horiz-adv-x="352" 
d="M201 714h-53v-113l-106 40l-18 -48l106 -38l-65 -91l45 -31l65 96l69 -96l41 31l-66 91l109 38l-20 48l-107 -40v113z" />
    <glyph glyph-name="plus" unicode="+" horiz-adv-x="600" 
d="M334 506h-68v-219h-218v-68h218v-219h68v219h218v68h-218v219z" />
    <glyph glyph-name="comma" unicode="," horiz-adv-x="278" 
d="M83 0h59q1 -12 -2 -26.5t-9.5 -28.5t-18 -25t-28.5 -17v-50q58 17 84 58.5t26 98.5v101h-111v-111z" />
    <glyph glyph-name="hyphen" unicode="-" horiz-adv-x="389" 
d="M50 238h289v80h-289v-80z" />
    <glyph glyph-name="hyphen" unicode="&#xad;" horiz-adv-x="389" 
d="M50 238h289v80h-289v-80z" />
    <glyph glyph-name="period" unicode="." horiz-adv-x="278" 
d="M83 0h111v111h-111v-111z" />
    <glyph glyph-name="slash" unicode="/" horiz-adv-x="333" 
d="M-18 -17h73l296 748h-73z" />
    <glyph glyph-name="zero" unicode="0" 
d="M42 348q0 -39 2 -81t10 -82t23 -75.5t41 -62.5t65.5 -43t94.5 -16t94.5 16t65.5 43t41 62.5t23 75.5t10 82t2 81q0 59 -5.5 122.5t-29 116.5t-71 87.5t-130.5 34.5t-130.5 -34.5t-71 -87.5t-29 -116.5t-5.5 -122.5zM132 349q0 26 0.5 57.5t5 63t13 61.5t25 52.5
t41.5 36.5t61 14t61 -14t41.5 -36.5t25 -52.5t13 -61.5t5 -63t0.5 -57.5q0 -40 -2.5 -89.5t-16 -93t-43.5 -73.5t-84 -30t-84 30t-43.5 73.5t-16 93t-2.5 89.5z" />
    <glyph glyph-name="one" unicode="1" 
d="M356 709h-65q-7 -40 -26 -66t-46.5 -41t-61.5 -20.5t-70 -5.5v-68h184v-508h85v709z" />
    <glyph glyph-name="two" unicode="2" 
d="M129 458q-1 32 6.5 63.5t24.5 56.5t43.5 40.5t63.5 15.5q28 0 53 -9t43.5 -26t29.5 -40.5t11 -52.5q0 -37 -11.5 -65t-34 -52t-56.5 -47.5t-79 -51.5q-38 -23 -71.5 -47.5t-60 -57.5t-44.5 -77.5t-23 -107.5h463v75h-364q6 33 25.5 58.5t47 47.5t60.5 41.5l66 39.5
q33 21 64 44t55 51.5t38.5 64.5t14.5 83q0 49 -17.5 87.5t-47.5 64t-70.5 39t-86.5 13.5q-56 0 -100 -19t-73 -52.5t-43.5 -79.5t-11.5 -100h85z" />
    <glyph glyph-name="three" unicode="3" 
d="M218 333q24 3 51 3q31 0 59 -8.5t48 -26t32 -43t12 -58.5q0 -32 -12.5 -57.5t-33.5 -43t-49 -27t-59 -9.5q-73 0 -111 43.5t-40 112.5h-85q-1 -55 15.5 -98t47.5 -72.5t75 -45t98 -15.5q50 0 94.5 14t77.5 41t52.5 67.5t19.5 93.5q0 64 -31.5 111t-96.5 61v2
q41 19 69.5 56.5t28.5 84.5q0 49 -16.5 85t-45.5 59t-68.5 34.5t-85.5 11.5q-53 0 -93.5 -17t-67.5 -47t-41.5 -72t-16.5 -93h85q0 31 8 59t24.5 49t41.5 33.5t60 12.5q54 0 90 -29t36 -85q0 -29 -11 -50.5t-29.5 -36t-43 -22t-51.5 -7.5h-18t-19 1v-72z" />
    <glyph glyph-name="four" unicode="4" 
d="M419 709h-68l-323 -461v-82h311v-166h80v166h96v75h-96v468zM101 241l236 347h2v-347h-238z" />
    <glyph glyph-name="five" unicode="5" 
d="M470 697h-271h-79l-66 -368l73 -4q25 30 58 48.5t74 18.5q36 0 65.5 -12t50.5 -33.5t32.5 -51t11.5 -64.5q0 -42 -12 -73.5t-32.5 -52.5t-48 -31.5t-57.5 -10.5q-32 0 -58.5 9.5t-46 27t-31 41t-13.5 50.5h-85q1 -48 19 -85.5t49 -64t71.5 -40t86.5 -13.5q62 0 108.5 20
t77.5 53t46.5 75.5t15.5 87.5q0 61 -18 106.5t-49 76t-73 45.5t-89 15q-36 0 -72.5 -12.5t-59.5 -38.5l-2 2l38 204h286v75z" />
    <glyph glyph-name="six" unicode="6" 
d="M286 381q36 0 63 -13t45 -34.5t26.5 -51t8.5 -62.5q0 -32 -9.5 -60t-27.5 -50t-45 -34.5t-61 -12.5q-35 0 -62.5 12.5t-46 33.5t-28.5 50t-10 62t9.5 62.5t28.5 51t46 34t63 12.5zM499 528q-8 87 -60 134t-140 47q-76 0 -126 -32t-80 -85t-42.5 -121.5t-12.5 -141.5
q0 -56 8.5 -116t34.5 -110t74 -82.5t127 -32.5q67 0 112.5 22.5t73 57.5t39.5 77t12 81q0 49 -15 91t-42.5 73t-68 48.5t-91.5 17.5q-58 0 -102.5 -22t-74.5 -71l-2 2q1 41 8 88t25 87.5t51.5 67t87.5 26.5q51 0 82 -29t37 -77h85z" />
    <glyph glyph-name="seven" unicode="7" 
d="M509 697h-459v-80h372q-56 -59 -104.5 -129t-85.5 -148.5t-60.5 -164t-29.5 -175.5h95q5 83 28 171t59.5 171t83.5 156t101 126v73z" />
    <glyph glyph-name="eight" unicode="8" 
d="M130 200q0 31 11.5 56t32 43t47.5 27.5t59 9.5q30 0 56.5 -10.5t46.5 -28.5t31.5 -42.5t11.5 -53.5q0 -30 -10.5 -55t-30 -43.5t-46 -29t-58.5 -10.5q-66 0 -108.5 36.5t-42.5 100.5zM65 528q0 -48 27 -88.5t72 -58.5q-60 -21 -92 -67.5t-32 -109.5q0 -54 18.5 -94.5
t51 -67.5t76.5 -40.5t95 -13.5q49 0 92 14.5t74.5 42t50 68t18.5 91.5q0 66 -31 111.5t-95 65.5q44 20 71 59.5t27 87.5q0 34 -12 66.5t-37.5 58t-66.5 41t-99 15.5q-41 0 -78.5 -12t-66.5 -35t-46 -56.5t-17 -77.5zM155 525q0 27 10 47t26.5 34t39 21t48.5 7
q52 0 85.5 -27.5t33.5 -81.5t-33 -84t-84 -30q-26 0 -49 7t-40 21t-27 35.5t-10 50.5z" />
    <glyph glyph-name="nine" unicode="9" 
d="M409 472q0 -32 -10 -60t-29 -49.5t-46 -34t-60 -12.5q-31 0 -56.5 12.5t-44 33.5t-29 48t-10.5 56q0 33 7.5 63t24 53.5t43 37.5t64.5 14q36 0 63 -13t45.5 -35.5t28 -51.5t9.5 -62zM49 171q4 -46 21.5 -80t45.5 -57t65.5 -34.5t82.5 -11.5q129 0 187.5 99t58.5 283
q0 100 -19.5 166t-52.5 104t-77.5 53.5t-93.5 15.5q-51 0 -94 -17t-74 -47.5t-48 -73t-17 -93.5q0 -53 14.5 -96.5t43 -74.5t70.5 -48.5t96 -17.5q52 0 96 26.5t68 71.5l2 -2q-4 -138 -43 -206t-117 -68q-51 0 -88 28t-42 80h-85z" />
    <glyph glyph-name="colon" unicode=":" horiz-adv-x="278" 
d="M83 0h111v111h-111v-111zM194 517h-111v-111h111v111z" />
    <glyph glyph-name="semicolon" unicode=";" horiz-adv-x="278" 
d="M83 0h59q1 -12 -2 -26.5t-9.5 -28.5t-18 -25t-28.5 -17v-50q58 17 84.5 58.5t25.5 98.5v101h-111v-111zM194 517h-111v-111h111v111z" />
    <glyph glyph-name="semicolon" unicode="&#x37e;" horiz-adv-x="278" 
d="M83 0h59q1 -12 -2 -26.5t-9.5 -28.5t-18 -25t-28.5 -17v-50q58 17 84.5 58.5t25.5 98.5v101h-111v-111zM194 517h-111v-111h111v111z" />
    <glyph glyph-name="less" unicode="&#x3c;" horiz-adv-x="600" 
d="M554 514l-508 -230v-62l508 -230v68l-425 193l425 193v68z" />
    <glyph glyph-name="equal" unicode="=" horiz-adv-x="600" 
d="M552 388h-504v-68h504v68zM48 118h504v68h-504v-68z" />
    <glyph glyph-name="greater" unicode="&#x3e;" horiz-adv-x="600" 
d="M46 -8l508 230v62l-508 230v-68l425 -193l-425 -193v-68z" />
    <glyph glyph-name="question" unicode="?" 
d="M140 491q0 34 8 64.5t25.5 52.5t43.5 35t62 13q54 0 85.5 -31t35.5 -86q2 -28 -4.5 -49.5t-18 -39t-26 -32.5l-29.5 -30l-31 -31.5t-29 -36.5t-21.5 -44t-8.5 -55v-47h85v39q0 25 7.5 46t20 38.5t28 33l31.5 30.5l31.5 33t27.5 37t19.5 44.5t7.5 55.5q0 48 -15.5 85
t-43.5 62.5t-67 39t-85 13.5q-53 0 -94.5 -18t-70.5 -50.5t-44.5 -76.5t-14.5 -95h85zM218 0h111v111h-111v-111z" />
    <glyph glyph-name="at" unicode="@" horiz-adv-x="800" 
d="M420 505q16 0 30.5 -8t25.5 -20.5t18 -29.5t7 -35q0 -31 -12 -68t-33 -69.5t-49 -54t-61 -21.5q-38 0 -62 27.5t-24 69.5q0 33 12 69.5t33 67.5t50.5 51.5t64.5 20.5zM618 554h-63l-23 -63q-17 45 -47 63.5t-65 18.5q-53 0 -96.5 -25t-74 -65t-47.5 -91t-17 -103
q0 -33 10.5 -62t29 -50t45 -33.5t58.5 -12.5q37 0 69 20.5t55 46.5h3q2 -33 20 -49t44 -16q35 0 76 21t76 59t58.5 91.5t23.5 118.5q0 67 -27 124t-73.5 97.5t-108.5 63.5t-131 23q-76 0 -143.5 -29t-118 -79.5t-80 -118t-29.5 -144.5q0 -79 29 -148t79.5 -120t119 -80
t147.5 -29q48 0 94 12t86.5 34.5t74.5 55.5t58 74h-63q-21 -27 -49 -49.5t-60.5 -38.5t-67.5 -24.5t-71 -8.5q-63 0 -119 24.5t-98.5 67t-67 100.5t-24.5 125q0 66 23.5 124t64.5 102t96.5 69.5t119.5 25.5q52 0 101 -18t87 -51.5t60.5 -81.5t22.5 -107q0 -40 -13 -81
t-33 -74t-44.5 -54t-47.5 -21q-13 0 -18.5 8.5t-5.5 22.5q0 11 3.5 24.5t7.5 26.5z" />
    <glyph glyph-name="A" unicode="A" horiz-adv-x="648" 
d="M-7 0h98l80 215h302l78 -215h105l-279 714h-105zM322 628h2l119 -333h-242z" />
    <glyph glyph-name="B" unicode="B" horiz-adv-x="685" 
d="M173 327h217q30 0 58 -5.5t49.5 -19t34.5 -36.5t13 -58q0 -59 -36 -93.5t-98 -34.5h-238v247zM78 0h345q53 0 93.5 17.5t68 46t41.5 65.5t14 76q0 66 -35 112t-101 60v2q50 20 78 61.5t28 98.5q0 53 -24.5 90.5t-59.5 58.5q-16 10 -39 15t-48.5 7.5t-51.5 3t-50 0.5h-259
v-714zM173 634h190q31 0 58.5 -3.5t48.5 -15.5t33 -34.5t12 -59.5q0 -57 -35.5 -85.5t-116.5 -28.5h-190v227z" />
    <glyph glyph-name="C" unicode="C" horiz-adv-x="722" 
d="M675 499q-8 57 -34 100.5t-65 72.5t-89 44t-106 15q-83 0 -146 -29.5t-105.5 -80.5t-64.5 -119.5t-22 -146.5t20.5 -146t61.5 -118t103 -79t145 -29q136 0 215.5 76t93.5 210h-95q-3 -44 -18 -82t-41.5 -65.5t-63 -43t-83.5 -15.5q-64 0 -110 24t-75.5 64.5t-43.5 95
t-14 115.5q0 56 14 108t43.5 92.5t75 64.5t109.5 24q37 0 70 -9.5t59.5 -28.5t44.5 -47.5t26 -66.5h95z" />
    <glyph glyph-name="D" unicode="D" horiz-adv-x="704" 
d="M78 0h245q89 0 154 25t107 72.5t62 117t20 159.5q0 172 -89 256t-254 84h-245v-714zM173 634h160q66 0 111 -19t73.5 -54t41 -85.5t12.5 -114.5q0 -66 -13.5 -112.5t-34.5 -77.5t-47.5 -49t-53.5 -27.5t-51 -12t-40 -2.5h-158v554z" />
    <glyph glyph-name="E" unicode="E" horiz-adv-x="611" 
d="M78 0h496v80h-401v247h371v80h-371v227h398v80h-493v-714z" />
    <glyph glyph-name="F" unicode="F" horiz-adv-x="574" 
d="M78 0h95v327h328v80h-328v227h374v80h-469v-714z" />
    <glyph glyph-name="G" unicode="G" horiz-adv-x="759" 
d="M637 0h60v376h-313v-80h228q2 -49 -12.5 -91.5t-44.5 -74t-73.5 -49.5t-98.5 -18q-60 0 -105.5 23.5t-76.5 63t-47 91t-16 107.5q0 57 14 111.5t43.5 97t76 68.5t111.5 26q40 0 75.5 -9.5t63.5 -28.5t47 -49t26 -70h95q-10 63 -37.5 107.5t-68 73.5t-92 42.5t-109.5 13.5
q-85 0 -148.5 -31.5t-106 -84.5t-64 -123.5t-21.5 -148.5q0 -70 23 -135t67 -115t107 -80t143 -30q31 0 63 6t62 19t56.5 33t47.5 48z" />
    <glyph glyph-name="H" unicode="H" horiz-adv-x="722" 
d="M78 0h95v327h376v-327h95v714h-95v-307h-376v307h-95v-714z" />
    <glyph glyph-name="I" unicode="I" horiz-adv-x="259" 
d="M82 0h95v714h-95v-714z" />
    <glyph glyph-name="J" unicode="J" horiz-adv-x="519" 
d="M441 714h-95v-522q0 -59 -24.5 -94t-89.5 -35q-35 0 -57.5 10.5t-35 29.5t-17.5 45t-5 57v30h-95v-44q0 -101 54 -154.5t154 -53.5q60 0 100.5 17t65 44.5t35 62.5t10.5 71v536z" />
    <glyph glyph-name="K" unicode="K" horiz-adv-x="667" 
d="M78 0h95v250l119 111l258 -361h120l-313 426l301 288h-123l-362 -356v356h-95v-714z" />
    <glyph glyph-name="L" unicode="L" 
d="M78 0h473v80h-378v634h-95v-714z" />
    <glyph glyph-name="M" unicode="M" horiz-adv-x="871" 
d="M80 0h90v594h2l223 -594h81l223 594h2v-594h90v714h-130l-226 -600l-225 600h-130v-714z" />
    <glyph glyph-name="N" unicode="N" horiz-adv-x="722" 
d="M77 0h90v573h2l373 -573h104v714h-90v-579h-2l-376 579h-101v-714z" />
    <glyph glyph-name="O" unicode="O" horiz-adv-x="760" 
d="M38 357q0 -73 21.5 -140.5t64.5 -119.5t107 -83t149 -31t149 31t107 83t64.5 119.5t21.5 140.5t-21.5 140.5t-64.5 119.5t-107 83t-149 31t-149 -31t-107 -83t-64.5 -119.5t-21.5 -140.5zM133 357q0 54 14 106.5t44 94.5t77 67.5t112 25.5t112 -25.5t77 -67.5t44 -94.5
t14 -106.5t-14 -106.5t-44 -94.5t-77 -67.5t-112 -25.5t-112 25.5t-77 67.5t-44 94.5t-14 106.5z" />
    <glyph glyph-name="P" unicode="P" horiz-adv-x="648" 
d="M78 0h95v292h218q107 -1 163 55t56 156t-56 155.5t-163 55.5h-313v-714zM173 634h186q81 0 118.5 -33.5t37.5 -97.5t-37.5 -98t-118.5 -33h-186v262z" />
    <glyph glyph-name="Q" unicode="Q" horiz-adv-x="760" 
d="M708 -2l-94 75q54 53 81 127.5t27 156.5q0 73 -21.5 140.5t-64.5 119.5t-107 83t-149 31t-149 -31t-107 -83t-64.5 -119.5t-21.5 -140.5t21.5 -140.5t64.5 -119.5t107 -83t149 -31q99 0 171 43l109 -88zM400 146l79 -63q-46 -20 -99 -20q-65 0 -112 25.5t-77 67.5
t-44 94.5t-14 106.5t14 106.5t44 94.5t77 67.5t112 25.5t112 -25.5t77 -67.5t44 -94.5t14 -106.5q0 -65 -20 -126t-62 -103l-95 76z" />
    <glyph glyph-name="R" unicode="R" horiz-adv-x="685" 
d="M173 385v249h236q67 0 97 -34.5t30 -87.5q0 -39 -13.5 -63.5t-36 -39t-52.5 -19.5t-63 -5h-198zM78 0h95v305h232q34 0 55.5 -10.5t34.5 -28t19 -41t10 -49.5q5 -26 6 -53t2 -50.5t4.5 -42.5t13.5 -30h106q-15 18 -22.5 41.5t-11 49t-5 53t-3.5 53.5q-3 26 -8 50
t-17 43.5t-31.5 33.5t-50.5 20v2q65 18 94.5 67t29.5 114q0 86 -58 136.5t-159 50.5h-336v-714z" />
    <glyph glyph-name="S" unicode="S" horiz-adv-x="648" 
d="M581 505q-2 59 -23 101.5t-56 70.5t-82 41t-102 13q-49 0 -95.5 -12.5t-83 -38t-58.5 -65t-22 -93.5q0 -49 19.5 -81t52 -53t73.5 -33.5t84 -21.5t84 -18.5t73 -24t51.5 -37.5t19.5 -60q0 -39 -16 -64t-42 -39.5t-58.5 -20.5t-64.5 -6q-41 0 -78.5 10t-66 31t-46 53.5
t-17.5 77.5h-90q0 -65 23.5 -112.5t64 -78.5t94 -46t113.5 -15q49 0 98.5 12t89.5 37.5t65.5 66t25.5 97.5q0 52 -19.5 87.5t-51.5 58.5t-73 36.5t-84 23.5t-84 18.5t-73.5 21.5t-52 33.5t-19.5 53.5q0 35 13.5 58.5t36 37.5t51.5 20t59 6q74 0 121.5 -34.5t55.5 -111.5h90z
" />
    <glyph glyph-name="T" unicode="T" horiz-adv-x="574" 
d="M240 0h95v634h238v80h-571v-80h238v-634z" />
    <glyph glyph-name="U" unicode="U" horiz-adv-x="722" 
d="M648 714h-95v-456q0 -95 -47.5 -145t-138.5 -50q-95 0 -146.5 50t-51.5 145v456h-95v-456q0 -71 20 -123t57.5 -86t92 -50t123.5 -16q134 0 207.5 69.5t73.5 205.5v456z" />
    <glyph glyph-name="V" unicode="V" horiz-adv-x="611" 
d="M613 714h-99l-206 -619h-2l-204 619h-103l252 -714h108z" />
    <glyph glyph-name="W" unicode="W" horiz-adv-x="926" 
d="M914 714h-95l-145 -594h-2l-158 594h-103l-160 -594h-2l-140 594h-97l183 -714h99l165 600h2l163 -600h99z" />
    <glyph glyph-name="X" unicode="X" horiz-adv-x="611" 
d="M-1 0h107l198 295l192 -295h116l-251 367l236 347h-106l-186 -279l-178 279h-114l235 -347z" />
    <glyph glyph-name="Y" unicode="Y" horiz-adv-x="648" 
d="M646 714h-108l-209 -340l-214 340h-113l276 -422v-292h95v292z" />
    <glyph glyph-name="Z" unicode="Z" horiz-adv-x="611" 
d="M22 0h568v80h-455l443 554v80h-522v-80h410l-444 -554v-80z" />
    <glyph glyph-name="bracketleft" unicode="[" horiz-adv-x="259" 
d="M259 731h-187v-929h187v68h-107v793h107v68z" />
    <glyph glyph-name="backslash" unicode="\" horiz-adv-x="333" 
d="M55 731h-73l296 -748h73z" />
    <glyph glyph-name="bracketright" unicode="]" horiz-adv-x="259" 
d="M0 -198h187v929h-187v-68h107v-793h-107v-68z" />
    <glyph glyph-name="asciicircum" unicode="^" horiz-adv-x="600" 
d="M50 264h71l178 360l181 -360h70l-218 433h-64z" />
    <glyph glyph-name="underscore" unicode="_" horiz-adv-x="500" 
d="M0 -125h500v50h-500v-50z" />
    <glyph glyph-name="grave" unicode="`" horiz-adv-x="222" 
d="M108 588h64l-86 143h-109z" />
    <glyph glyph-name="a" unicode="a" horiz-adv-x="537" 
d="M384 180q0 -18 -9 -38.5t-28 -38t-49 -29t-72 -11.5q-20 0 -38 4t-31.5 13t-22 23.5t-8.5 35.5q0 24 8.5 40t22.5 26.5t33 16.5t40 10t43.5 6.5t42.5 6t38 8.5t30 14v-87zM522 68q-14 -5 -26 -5q-20 0 -23.5 14t-3.5 44v266q0 45 -17 73t-45 43.5t-62.5 20.5t-69.5 5
q-43 0 -82 -9t-69 -29.5t-48 -53.5t-20 -81h85q3 57 39 77.5t90 20.5q20 0 40.5 -3t37 -12t27 -26t10.5 -45q0 -24 -14 -36.5t-38 -19t-55.5 -10t-66.5 -10.5q-33 -6 -64.5 -15.5t-56 -26.5t-39.5 -45t-15 -72q0 -39 13.5 -66.5t36.5 -45t54.5 -25.5t66.5 -8q54 0 100.5 19
t81.5 61q0 -42 19.5 -61t52.5 -19q38 0 61 14v66z" />
    <glyph glyph-name="b" unicode="b" horiz-adv-x="593" 
d="M467 263q0 -38 -8 -74t-26 -64t-48 -45t-73 -17q-44 0 -75 16.5t-50.5 43.5t-28.5 62.5t-9 73.5q0 36 8.5 71t27.5 62.5t49 44.5t73 17q41 0 71.5 -16t50 -43t29 -61.5t9.5 -70.5zM67 0h85v69h2q14 -23 34.5 -38.5t43.5 -25t46 -13.5t43 -4q59 0 103.5 21.5t74 58
t44 85.5t14.5 104t-15 104t-44.5 86.5t-74 59.5t-104.5 22q-54 0 -99 -19.5t-66 -62.5h-2v267h-85v-714z" />
    <glyph glyph-name="c" unicode="c" horiz-adv-x="537" 
d="M503 351q-5 46 -23.5 79.5t-48.5 55.5t-68.5 32.5t-82.5 10.5q-62 0 -107.5 -21.5t-76 -59t-45.5 -88t-15 -108.5t15.5 -106.5t46 -83.5t76 -54.5t104.5 -19.5q98 0 156 53t72 148h-87q-8 -59 -44 -92.5t-98 -33.5q-41 0 -69.5 16t-46.5 42.5t-26.5 60.5t-8.5 70
q0 39 8 75.5t26.5 64.5t49.5 45t77 17q53 0 85.5 -27t42.5 -76h88z" />
    <glyph glyph-name="d" unicode="d" horiz-adv-x="593" 
d="M526 714h-85v-266h-2q-14 23 -34.5 38.5t-43.5 25t-46 13.5t-43 4q-59 0 -103.5 -21.5t-74 -58.5t-44 -85.5t-14.5 -103.5t15 -104t44.5 -86.5t74 -59.5t104.5 -22q54 0 99 19.5t66 62.5h2v-70h85v714zM126 254q0 38 8 74t26 64t47.5 45t73.5 17t75 -16.5t50.5 -43.5
t28.5 -62.5t9 -73.5q0 -36 -8.5 -71t-27.5 -62.5t-49 -44.5t-73 -17q-41 0 -71.5 16t-50 43t-29 61.5t-9.5 70.5z" />
    <glyph glyph-name="e" unicode="e" horiz-adv-x="537" 
d="M421 164q-11 -51 -46 -76t-88 -25q-42 0 -73 14t-51 37.5t-29 54t-8 64.5h387q2 47 -8.5 99t-38 96t-73 72.5t-114.5 28.5q-53 0 -97.5 -20t-77 -56t-50.5 -85.5t-18 -107.5q2 -59 17.5 -109t46.5 -86t76.5 -56.5t107.5 -20.5q88 0 146 45t75 131h-84zM126 308
q2 30 13 56.5t30 46.5t45.5 31.5t59.5 11.5q31 0 58 -11.5t46.5 -31t31 -46.5t13.5 -57h-297z" />
    <glyph glyph-name="f" unicode="f" horiz-adv-x="296" 
d="M99 0h85v442h100v75h-100v72q0 34 17 46t48 12q11 0 24 -1.5t24 -5.5v74q-12 4 -27.5 6t-27.5 2q-70 0 -106.5 -32.5t-36.5 -95.5v-77h-87v-75h87v-442z" />
    <glyph glyph-name="g" unicode="g" horiz-adv-x="574" 
d="M272 69q-42 0 -70 17.5t-45 46t-24 63.5t-7 70q0 37 8.5 71t27 60t47.5 41.5t70 15.5q40 0 68 -16t45.5 -42.5t25.5 -59.5t8 -67q0 -36 -8.5 -72t-26.5 -64.5t-47.5 -46t-71.5 -17.5zM510 517h-80v-74h-1q-23 43 -64 64.5t-90 21.5q-67 0 -113 -25.5t-74 -65.5t-40 -88
t-12 -94q0 -53 14.5 -100.5t43.5 -83.5t72 -57t101 -21q24 0 48.5 6t46 17.5t38.5 29t28 41.5h2v-34q0 -44 -8.5 -80t-27.5 -61.5t-48 -40t-71 -14.5q-21 0 -44 4.5t-42.5 14.5t-33 26t-14.5 39h-85q2 -42 22 -71t50.5 -47t68 -26t73.5 -8q123 0 181.5 63.5t58.5 190.5v473z
" />
    <glyph glyph-name="h" unicode="h" 
d="M64 0h85v292q0 35 9.5 64.5t28.5 51.5t47.5 34t67.5 12q49 0 77 -28t28 -76v-350h85v340q0 42 -8.5 76.5t-29.5 59.5t-55 39t-85 14q-23 0 -47.5 -5t-46.5 -15.5t-40.5 -27.5t-28.5 -40h-2v273h-85v-714z" />
    <glyph glyph-name="i" unicode="i" horiz-adv-x="222" 
d="M69 0h85v517h-85v-517zM154 714h-85v-104h85v104z" />
    <glyph glyph-name="j" unicode="j" horiz-adv-x="222" 
d="M154 517h-85v-569q0 -40 -10 -55.5t-38 -15.5h-18q-8 0 -17 2v-73q11 -2 22 -3t22 -1q57 0 90.5 31.5t33.5 100.5v583zM154 714h-85v-104h85v104z" />
    <glyph glyph-name="k" unicode="k" horiz-adv-x="519" 
d="M69 0h85v196l80 74l177 -270h108l-220 329l205 188h-114l-236 -226v423h-85v-714z" />
    <glyph glyph-name="l" unicode="l" horiz-adv-x="222" 
d="M69 0h85v714h-85v-714z" />
    <glyph glyph-name="m" unicode="m" horiz-adv-x="853" 
d="M64 0h85v322q0 15 7.5 37.5t24 43.5t42.5 36t64 15q28 0 47 -8.5t30 -24t15.5 -36.5t4.5 -46v-339h85v322q0 60 36.5 96t98.5 36q31 0 50.5 -9t30.5 -24.5t15 -36.5t4 -45v-339h85v379q0 40 -12.5 68.5t-35 46.5t-54 26.5t-70.5 8.5q-50 0 -93 -23t-69 -65q-16 48 -55 68
t-87 20q-109 0 -167 -88h-2v76h-80v-517z" />
    <glyph glyph-name="n" unicode="n" 
d="M64 0h85v292q0 35 9.5 64.5t28.5 51.5t47.5 34t67.5 12q49 0 77 -28t28 -76v-350h85v340q0 42 -8.5 76.5t-29.5 59.5t-55 39t-85 14q-56 0 -98.5 -23t-69.5 -71h-2v82h-80v-517z" />
    <glyph glyph-name="o" unicode="o" horiz-adv-x="574" 
d="M36 258q0 -57 16 -106t48 -85.5t78.5 -57.5t108.5 -21q61 0 108 21t79 57.5t48 85.5t16 106t-16 106.5t-48 86t-79 57.5t-108 21q-62 0 -108.5 -21t-78.5 -57.5t-48 -86t-16 -106.5zM126 258q0 47 12.5 83.5t34.5 61.5t51.5 38t62.5 13t62.5 -13t51.5 -38t34.5 -61.5
t12.5 -83.5t-12.5 -83.5t-34.5 -61t-51.5 -37.5t-62.5 -13t-62.5 13t-51.5 37.5t-34.5 61t-12.5 83.5z" />
    <glyph glyph-name="p" unicode="p" horiz-adv-x="593" 
d="M467 263q0 -38 -8 -74t-26 -64t-48 -45t-73 -17q-44 0 -75 16.5t-50.5 43.5t-28.5 62.5t-9 73.5q0 36 8.5 71t27.5 62.5t49 44.5t73 17q41 0 71.5 -16t50 -43t29 -61.5t9.5 -70.5zM67 -198h85v267h2q14 -23 34.5 -38.5t43.5 -25t46 -13.5t43 -4q59 0 103.5 21.5t74 58
t44 85.5t14.5 104t-15 104t-44.5 86.5t-74 59.5t-104.5 22q-54 0 -99 -19.5t-66 -62.5h-2v70h-85v-715z" />
    <glyph glyph-name="q" unicode="q" horiz-adv-x="593" 
d="M526 517h-85v-69h-2q-14 23 -34.5 38.5t-43.5 25t-46 13.5t-43 4q-59 0 -103.5 -21.5t-74 -58.5t-44 -85.5t-14.5 -103.5t15 -104t44.5 -86.5t74 -59.5t104.5 -22q54 0 99 19.5t66 62.5h2v-268h85v715zM126 254q0 38 8 74t26 64t47.5 45t73.5 17t75 -16.5t50.5 -43.5
t28.5 -62.5t9 -73.5q0 -36 -8.5 -71t-27.5 -62.5t-49 -44.5t-73 -17q-41 0 -71.5 16t-50 43t-29 61.5t-9.5 70.5z" />
    <glyph glyph-name="r" unicode="r" horiz-adv-x="333" 
d="M61 0h85v230q0 49 10 88t32 66t58 41t87 14v90q-69 2 -114 -28t-76 -93h-2v109h-80v-517z" />
    <glyph glyph-name="s" unicode="s" horiz-adv-x="500" 
d="M31 163q2 -48 20 -81.5t48 -54t68.5 -30t82.5 -9.5q39 0 78.5 8t71 27t51 50.5t19.5 77.5q0 37 -14.5 62t-38 41.5t-54 26.5t-62.5 17l-60 13.5t-54 16t-39.5 23.5t-15.5 37q0 19 10 32t26 20.5t35.5 10.5t38.5 3q21 0 41.5 -4.5t37 -14.5t28 -26.5t13.5 -41.5h85
q-3 47 -20 78.5t-45.5 50t-66 26t-80.5 7.5q-34 0 -68.5 -8.5t-62 -26t-45 -45.5t-17.5 -67q0 -37 14.5 -62t38.5 -41t54 -26t62 -17l62.5 -13.5t54 -16.5t38 -25.5t14.5 -40.5q0 -24 -12 -39.5t-30.5 -23.5t-40.5 -11t-42 -3q-26 0 -50.5 5t-44 16.5t-31.5 30.5t-13 48h-85
z" />
    <glyph glyph-name="t" unicode="t" horiz-adv-x="315" 
d="M182 672h-85v-155h-88v-75h88v-329q0 -36 7 -58t21.5 -34t38 -16.5t56.5 -4.5h65v75h-39q-20 0 -32.5 1.5t-19.5 6.5t-9.5 14t-2.5 24v321h103v75h-103v155z" />
    <glyph glyph-name="u" unicode="u" 
d="M492 517h-85v-292q0 -35 -9.5 -64.5t-28.5 -51.5t-47.5 -34t-67.5 -12q-49 0 -77 28t-28 76v350h-85v-340q0 -42 8.5 -76.5t29.5 -59.5t55 -39t85 -14q56 0 98.5 23t69.5 71h2v-82h80v517z" />
    <glyph glyph-name="v" unicode="v" horiz-adv-x="500" 
d="M486 517h-89l-141 -431h-2l-145 431h-95l192 -517h91z" />
    <glyph glyph-name="w" unicode="w" horiz-adv-x="758" 
d="M741 517h-88l-116 -423h-2l-108 423h-93l-104 -423h-2l-117 423h-94l166 -517h92l104 411h2l105 -411h90z" />
    <glyph glyph-name="x" unicode="x" horiz-adv-x="518" 
d="M9 0h103l144 214l144 -214h109l-200 279l178 238h-102l-129 -181l-124 181h-109l180 -245z" />
    <glyph glyph-name="y" unicode="y" horiz-adv-x="500" 
d="M492 517h-90l-145 -423h-2l-151 423h-96l205 -514l-35 -88q-12 -23 -28 -35t-42 -12q-13 0 -25.5 4l-24.5 8v-78q14 -5 29 -7t30 -2q28 0 50 7.5t39 24t31.5 42.5t29.5 64z" />
    <glyph glyph-name="z" unicode="z" horiz-adv-x="480" 
d="M22 0h436v75h-330l316 384v58h-402v-75h292l-312 -377v-65z" />
    <glyph glyph-name="braceleft" unicode="{" horiz-adv-x="333" 
d="M309 731h-70q-19 0 -38 -8.5t-34.5 -25t-25.5 -41t-10 -56.5v-182q0 -26 -7 -48t-18.5 -37.5t-26.5 -24t-31 -8.5v-68q32 0 57.5 -31t25.5 -86v-182q0 -32 10 -56.5t25.5 -41t34.5 -25t38 -8.5h70v60h-50q-15 0 -24 7.5t-14.5 20t-7.5 28t-2 30.5v183q0 38 -10.5 63.5
t-24.5 40.5t-28.5 22t-23.5 8v3q9 2 23.5 10t28.5 24t24.5 40.5t10.5 59.5v183q0 16 2 31.5t7.5 27.5t14.5 19.5t24 7.5h50v60z" />
    <glyph glyph-name="bar" unicode="|" horiz-adv-x="222" 
d="M77 -214h68v1000h-68v-1000z" />
    <glyph glyph-name="braceright" unicode="}" horiz-adv-x="333" 
d="M24 -198h70q19 0 38 8.5t34.5 25t25.5 41t10 56.5v182q0 26 7 47.5t18.5 37t26.5 24t31 8.5v68q-16 0 -31 8t-26.5 23.5t-18.5 37.5t-7 49v182q0 32 -10 56.5t-25.5 41t-34.5 25t-38 8.5h-70v-60h50q15 0 24 -7.5t14.5 -20t7.5 -28.5t2 -32v-181q0 -38 10.5 -63.5
t24.5 -40.5t28.5 -22t23.5 -8v-3q-9 -2 -23.5 -10t-28.5 -24t-24.5 -40.5t-10.5 -59.5v-183q0 -16 -2 -31.5t-7.5 -27.5t-14.5 -19.5t-24 -7.5h-50v-60z" />
    <glyph glyph-name="asciitilde" unicode="~" horiz-adv-x="600" 
d="M495 319l-18 -26.5t-19.5 -24.5t-23 -18t-27.5 -7q-20 0 -47 14t-55 26q-29 13 -57 22.5t-54 9.5q-25 0 -44.5 -7.5t-34.5 -19.5t-26.5 -27.5t-19.5 -31.5l36 -50q6 13 13.5 26.5t18 24.5t23 18t29.5 7q35 0 63 -12.5t52 -26.5q25 -14 49.5 -23.5t52.5 -9.5
q23 0 41.5 7.5t33 19.5t27 27.5t23.5 31.5z" />
    <glyph glyph-name="quotesinglbase" unicode="&#x201a;" horiz-adv-x="278" 
d="M83 0h59q1 -12 -2 -26.5t-9.5 -28.5t-18 -25t-28.5 -17v-50q58 17 84 58.5t26 98.5v101h-111v-111z" />
    <glyph glyph-name="florin" 
d="M492 714h-74q-64 0 -103.5 -36t-50.5 -93l-26 -136h-91l-13 -68h92l-70 -369q-6 -35 -14 -55t-22.5 -30.5t-39 -13.5t-63.5 -3l-14 -75h66q42 0 72 11t52.5 38t38 72.5t27.5 113.5l55 311h100l14 68h-102l31 138q6 26 20.5 39t41.5 13h59z" />
    <glyph glyph-name="florin" unicode="&#x192;" 
d="M492 714h-74q-64 0 -103.5 -36t-50.5 -93l-26 -136h-91l-13 -68h92l-70 -369q-6 -35 -14 -55t-22.5 -30.5t-39 -13.5t-63.5 -3l-14 -75h66q42 0 72 11t52.5 38t38 72.5t27.5 113.5l55 311h100l14 68h-102l31 138q6 26 20.5 39t41.5 13h59z" />
    <glyph glyph-name="quotedblbase" horiz-adv-x="426" 
d="M66 0h59q0 -17 -2.5 -34.5t-9.5 -31.5t-18 -22.5t-28 -8.5v-50q29 0 49.5 12t34 32t20 46.5t6.5 56.5v111h-111v-111zM249 0h59q0 -17 -2.5 -34.5t-9.5 -31.5t-18 -22.5t-28 -8.5v-50q29 0 49.5 12t34 32t20 46.5t6.5 56.5v111h-111v-111z" />
    <glyph glyph-name="quotedblbase" unicode="&#x201e;" horiz-adv-x="426" 
d="M66 0h59q0 -17 -2.5 -34.5t-9.5 -31.5t-18 -22.5t-28 -8.5v-50q29 0 49.5 12t34 32t20 46.5t6.5 56.5v111h-111v-111zM249 0h59q0 -17 -2.5 -34.5t-9.5 -31.5t-18 -22.5t-28 -8.5v-50q29 0 49.5 12t34 32t20 46.5t6.5 56.5v111h-111v-111z" />
    <glyph glyph-name="ellipsis" unicode="&#x85;" horiz-adv-x="1000" 
d="M111 0h111v111h-111v-111zM444 0h111v111h-111v-111zM777 0h111v111h-111v-111z" />
    <glyph glyph-name="ellipsis" unicode="&#x2026;" horiz-adv-x="1000" 
d="M111 0h111v111h-111v-111zM444 0h111v111h-111v-111zM777 0h111v111h-111v-111z" />
    <glyph glyph-name="dagger" 
d="M236 -155h80v597h198v75h-198v197h-80v-197h-194v-75h194v-597z" />
    <glyph glyph-name="dagger" unicode="&#x2020;" 
d="M236 -155h80v597h198v75h-198v197h-80v-197h-194v-75h194v-597z" />
    <glyph glyph-name="daggerdbl" 
d="M236 -155h80v197h198v75h-198v325h198v75h-198v197h-80v-197h-194v-75h194v-325h-194v-75h194v-197z" />
    <glyph glyph-name="daggerdbl" unicode="&#x2021;" 
d="M236 -155h80v197h198v75h-198v325h198v75h-198v197h-80v-197h-194v-75h194v-325h-194v-75h194v-197z" />
    <glyph glyph-name="circumflex" horiz-adv-x="222" 
d="M-39 588h77l70 96l69 -96h84l-104 143h-93z" />
    <glyph glyph-name="circumflex" unicode="&#x2c6;" horiz-adv-x="222" 
d="M-39 588h77l70 96l69 -96h84l-104 143h-93z" />
    <glyph glyph-name="perthousand" horiz-adv-x="1148" 
d="M72 535q0 -36 8 -66.5t26 -53t45.5 -35t66.5 -12.5q31 0 59.5 10t48.5 35q22 27 31 60t9 67q0 36 -8 67t-25.5 53.5t-45 35.5t-67.5 13q-41 0 -69 -13.5t-45.5 -37t-25.5 -55.5t-8 -68zM147 538q0 19 3.5 39.5t12 37.5t23 28t37.5 11q21 0 34.5 -12t21 -30t10 -38.5
t2.5 -36.5q0 -18 -3 -38.5t-11 -37t-22 -27.5t-36 -11q-23 0 -37.5 10.5t-22 27.5t-10 37t-2.5 40zM90 -22h86l537 744h-85zM437 155q0 -36 8 -66.5t26 -53t45.5 -35t66.5 -12.5q31 0 59.5 10t48.5 35q22 27 31 60t9 67q0 36 -8 67t-25.5 53.5t-45 35.5t-67.5 13
q-41 0 -69 -13.5t-45.5 -37t-25.5 -55.5t-8 -68zM512 158q0 19 3.5 39.5t12 37.5t23 28t37.5 11q21 0 34.5 -12t21 -30t10 -38.5t2.5 -36.5q0 -18 -3 -38.5t-11 -37t-22 -27.5t-36 -11q-23 0 -37.5 10.5t-22 27.5t-10 37t-2.5 40zM782 155q0 -36 8 -66.5t26 -53t45.5 -35
t66.5 -12.5q31 0 59.5 10t48.5 35q22 27 31 60t9 67q0 36 -8 67t-25.5 53.5t-45 35.5t-67.5 13q-41 0 -69 -13.5t-45.5 -37t-25.5 -55.5t-8 -68zM857 158q0 19 3.5 39.5t12 37.5t23 28t37.5 11q21 0 34.5 -12t21 -30t10 -38.5t2.5 -36.5q0 -18 -3 -38.5t-11 -37t-22 -27.5
t-36 -11q-23 0 -37.5 10.5t-22 27.5t-10 37t-2.5 40z" />
    <glyph glyph-name="perthousand" unicode="&#x2030;" horiz-adv-x="1148" 
d="M72 535q0 -36 8 -66.5t26 -53t45.5 -35t66.5 -12.5q31 0 59.5 10t48.5 35q22 27 31 60t9 67q0 36 -8 67t-25.5 53.5t-45 35.5t-67.5 13q-41 0 -69 -13.5t-45.5 -37t-25.5 -55.5t-8 -68zM147 538q0 19 3.5 39.5t12 37.5t23 28t37.5 11q21 0 34.5 -12t21 -30t10 -38.5
t2.5 -36.5q0 -18 -3 -38.5t-11 -37t-22 -27.5t-36 -11q-23 0 -37.5 10.5t-22 27.5t-10 37t-2.5 40zM90 -22h86l537 744h-85zM437 155q0 -36 8 -66.5t26 -53t45.5 -35t66.5 -12.5q31 0 59.5 10t48.5 35q22 27 31 60t9 67q0 36 -8 67t-25.5 53.5t-45 35.5t-67.5 13
q-41 0 -69 -13.5t-45.5 -37t-25.5 -55.5t-8 -68zM512 158q0 19 3.5 39.5t12 37.5t23 28t37.5 11q21 0 34.5 -12t21 -30t10 -38.5t2.5 -36.5q0 -18 -3 -38.5t-11 -37t-22 -27.5t-36 -11q-23 0 -37.5 10.5t-22 27.5t-10 37t-2.5 40zM782 155q0 -36 8 -66.5t26 -53t45.5 -35
t66.5 -12.5q31 0 59.5 10t48.5 35q22 27 31 60t9 67q0 36 -8 67t-25.5 53.5t-45 35.5t-67.5 13q-41 0 -69 -13.5t-45.5 -37t-25.5 -55.5t-8 -68zM857 158q0 19 3.5 39.5t12 37.5t23 28t37.5 11q21 0 34.5 -12t21 -30t10 -38.5t2.5 -36.5q0 -18 -3 -38.5t-11 -37t-22 -27.5
t-36 -11q-23 0 -37.5 10.5t-22 27.5t-10 37t-2.5 40z" />
    <glyph glyph-name="Scaron" horiz-adv-x="648" 
d="M581 505q-2 59 -23 101.5t-56 70.5t-82 41t-102 13q-49 0 -95.5 -12.5t-83 -38t-58.5 -65t-22 -93.5q0 -49 19.5 -81t52 -53t73.5 -33.5t84 -21.5t84 -18.5t73 -24t51.5 -37.5t19.5 -60q0 -39 -16 -64t-42 -39.5t-58.5 -20.5t-64.5 -6q-41 0 -78.5 10t-66 31t-46 53.5
t-17.5 77.5h-90q0 -65 23.5 -112.5t64 -78.5t94 -46t113.5 -15q49 0 98.5 12t89.5 37.5t65.5 66t25.5 97.5q0 52 -19.5 87.5t-51.5 58.5t-73 36.5t-84 23.5t-84 18.5t-73.5 21.5t-52 33.5t-19.5 53.5q0 35 13.5 58.5t36 37.5t51.5 20t59 6q74 0 121.5 -34.5t55.5 -111.5h90z
M474 908h-77l-70 -96l-69 96h-84l104 -143h93z" />
    <glyph glyph-name="Scaron" unicode="&#x160;" horiz-adv-x="648" 
d="M581 505q-2 59 -23 101.5t-56 70.5t-82 41t-102 13q-49 0 -95.5 -12.5t-83 -38t-58.5 -65t-22 -93.5q0 -49 19.5 -81t52 -53t73.5 -33.5t84 -21.5t84 -18.5t73 -24t51.5 -37.5t19.5 -60q0 -39 -16 -64t-42 -39.5t-58.5 -20.5t-64.5 -6q-41 0 -78.5 10t-66 31t-46 53.5
t-17.5 77.5h-90q0 -65 23.5 -112.5t64 -78.5t94 -46t113.5 -15q49 0 98.5 12t89.5 37.5t65.5 66t25.5 97.5q0 52 -19.5 87.5t-51.5 58.5t-73 36.5t-84 23.5t-84 18.5t-73.5 21.5t-52 33.5t-19.5 53.5q0 35 13.5 58.5t36 37.5t51.5 20t59 6q74 0 121.5 -34.5t55.5 -111.5h90z
M474 908h-77l-70 -96l-69 96h-84l104 -143h93z" />
    <glyph glyph-name="guilsinglleft" horiz-adv-x="259" 
d="M202 114v86l-100 78l100 78v86l-152 -120v-88z" />
    <glyph glyph-name="guilsinglleft" unicode="&#x2039;" horiz-adv-x="259" 
d="M202 114v86l-100 78l100 78v86l-152 -120v-88z" />
    <glyph glyph-name="OE" horiz-adv-x="1074" 
d="M372 63q-59 0 -103.5 22.5t-74.5 61.5t-45.5 91.5t-15.5 112.5t15 114.5t45 96t75 65.5t106 24q57 0 99.5 -23t62.5 -54q11 -17 13 -35t2 -34v-301q0 -31 -14 -57t-38 -44.5t-57 -29t-70 -10.5zM551 0h483v80h-388v247h350v80h-350v227h382v80h-477v-59h-2
q-11 19 -30.5 33.5t-43.5 24t-50.5 14t-51.5 4.5q-80 0 -142 -28.5t-105 -79t-65.5 -119t-22.5 -149.5q0 -78 21.5 -146t63 -118.5t102.5 -79t140 -28.5q27 0 54.5 5.5t52 16.5t44.5 27t33 37h2v-69z" />
    <glyph glyph-name="OE" unicode="&#x152;" horiz-adv-x="1074" 
d="M372 63q-59 0 -103.5 22.5t-74.5 61.5t-45.5 91.5t-15.5 112.5t15 114.5t45 96t75 65.5t106 24q57 0 99.5 -23t62.5 -54q11 -17 13 -35t2 -34v-301q0 -31 -14 -57t-38 -44.5t-57 -29t-70 -10.5zM551 0h483v80h-388v247h350v80h-350v227h382v80h-477v-59h-2
q-11 19 -30.5 33.5t-43.5 24t-50.5 14t-51.5 4.5q-80 0 -142 -28.5t-105 -79t-65.5 -119t-22.5 -149.5q0 -78 21.5 -146t63 -118.5t102.5 -79t140 -28.5q27 0 54.5 5.5t52 16.5t44.5 27t33 37h2v-69z" />
    <glyph glyph-name="Zcaron" horiz-adv-x="611" 
d="M22 0h568v80h-455l443 554v80h-522v-80h410l-444 -554v-80zM456 908h-77l-70 -96l-69 96h-84l104 -143h93z" />
    <glyph glyph-name="Zcaron" unicode="&#x17d;" horiz-adv-x="611" 
d="M22 0h568v80h-455l443 554v80h-522v-80h410l-444 -554v-80zM456 908h-77l-70 -96l-69 96h-84l104 -143h93z" />
    <glyph glyph-name="quoteleft" horiz-adv-x="278" 
d="M195 567h-59q0 17 2.5 34.5t9.5 31.5t18 22.5t28 8.5v50q-29 0 -49.5 -12t-34 -32t-20 -46.5t-6.5 -56.5v-111h111v111z" />
    <glyph glyph-name="quoteleft" unicode="&#x2018;" horiz-adv-x="278" 
d="M195 567h-59q0 17 2.5 34.5t9.5 31.5t18 22.5t28 8.5v50q-29 0 -49.5 -12t-34 -32t-20 -46.5t-6.5 -56.5v-111h111v111z" />
    <glyph glyph-name="quoteright" horiz-adv-x="278" 
d="M83 603h59q0 -17 -2.5 -34.5t-9.5 -31.5t-18 -22.5t-28 -8.5v-50q29 0 49.5 12t34 32t20 46.5t6.5 56.5v111h-111v-111z" />
    <glyph glyph-name="quoteright" unicode="&#x2019;" horiz-adv-x="278" 
d="M83 603h59q0 -17 -2.5 -34.5t-9.5 -31.5t-18 -22.5t-28 -8.5v-50q29 0 49.5 12t34 32t20 46.5t6.5 56.5v111h-111v-111z" />
    <glyph glyph-name="quotedblleft" horiz-adv-x="426" 
d="M360 567h-59q0 17 2.5 34.5t9.5 31.5t18 22.5t28 8.5v50q-29 0 -49.5 -12t-34 -32t-20 -46.5t-6.5 -56.5v-111h111v111zM177 567h-59q0 17 2.5 34.5t9.5 31.5t18 22.5t28 8.5v50q-29 0 -49.5 -12t-34 -32t-20 -46.5t-6.5 -56.5v-111h111v111z" />
    <glyph glyph-name="quotedblleft" unicode="&#x201c;" horiz-adv-x="426" 
d="M360 567h-59q0 17 2.5 34.5t9.5 31.5t18 22.5t28 8.5v50q-29 0 -49.5 -12t-34 -32t-20 -46.5t-6.5 -56.5v-111h111v111zM177 567h-59q0 17 2.5 34.5t9.5 31.5t18 22.5t28 8.5v50q-29 0 -49.5 -12t-34 -32t-20 -46.5t-6.5 -56.5v-111h111v111z" />
    <glyph glyph-name="quotedblright" horiz-adv-x="426" 
d="M249 603h59q0 -17 -2.5 -34.5t-9.5 -31.5t-18 -22.5t-28 -8.5v-50q29 0 49.5 12t34 32t20 46.5t6.5 56.5v111h-111v-111zM66 603h59q0 -17 -2.5 -34.5t-9.5 -31.5t-18 -22.5t-28 -8.5v-50q29 0 49.5 12t34 32t20 46.5t6.5 56.5v111h-111v-111z" />
    <glyph glyph-name="quotedblright" unicode="&#x201d;" horiz-adv-x="426" 
d="M249 603h59q0 -17 -2.5 -34.5t-9.5 -31.5t-18 -22.5t-28 -8.5v-50q29 0 49.5 12t34 32t20 46.5t6.5 56.5v111h-111v-111zM66 603h59q0 -17 -2.5 -34.5t-9.5 -31.5t-18 -22.5t-28 -8.5v-50q29 0 49.5 12t34 32t20 46.5t6.5 56.5v111h-111v-111z" />
    <glyph glyph-name="bullet" horiz-adv-x="500" 
d="M72 357q0 -37 14 -69.5t38 -57t56.5 -38.5t69.5 -14t69.5 14t57 38.5t38.5 57t14 69.5t-14 69.5t-38.5 56.5t-57 38t-69.5 14t-69.5 -14t-56.5 -38t-38 -56.5t-14 -69.5z" />
    <glyph glyph-name="bullet" unicode="&#x2022;" horiz-adv-x="500" 
d="M72 357q0 -37 14 -69.5t38 -57t56.5 -38.5t69.5 -14t69.5 14t57 38.5t38.5 57t14 69.5t-14 69.5t-38.5 56.5t-57 38t-69.5 14t-69.5 -14t-56.5 -38t-38 -56.5t-14 -69.5z" />
    <glyph glyph-name="endash" horiz-adv-x="500" 
d="M0 238h500v80h-500v-80z" />
    <glyph glyph-name="endash" unicode="&#x2013;" horiz-adv-x="500" 
d="M0 238h500v80h-500v-80z" />
    <glyph glyph-name="emdash" horiz-adv-x="1000" 
d="M130 238h740v80h-740v-80z" />
    <glyph glyph-name="emdash" unicode="&#x2014;" horiz-adv-x="1000" 
d="M130 238h740v80h-740v-80z" />
    <glyph glyph-name="tilde" horiz-adv-x="222" 
d="M233 711q-5 -15 -15.5 -29.5t-30.5 -14.5q-16 0 -32.5 6t-33.5 14t-35.5 14t-38.5 6q-24 0 -41 -9t-29 -24t-20.5 -35t-14.5 -42h52q-1 9 3.5 17t11.5 13.5t16 8.5t17 3q14 0 31.5 -6t35.5 -13q18 -8 35.5 -14t30.5 -6q29 0 47.5 8.5t31.5 22.5q25 36 31 80h-52z" />
    <glyph glyph-name="tilde" unicode="&#x2dc;" horiz-adv-x="222" 
d="M233 711q-5 -15 -15.5 -29.5t-30.5 -14.5q-16 0 -32.5 6t-33.5 14t-35.5 14t-38.5 6q-24 0 -41 -9t-29 -24t-20.5 -35t-14.5 -42h52q-1 9 3.5 17t11.5 13.5t16 8.5t17 3q14 0 31.5 -6t35.5 -13q18 -8 35.5 -14t30.5 -6q29 0 47.5 8.5t31.5 22.5q25 36 31 80h-52z" />
    <glyph glyph-name="trademark" horiz-adv-x="990" 
d="M390 714h-326v-55h129v-357h68v357h129v55zM927 714h-104l-121 -313l-123 313h-105v-412h68v344h2l135 -344h43l135 344h2v-344h68v412z" />
    <glyph glyph-name="trademark" unicode="&#x2122;" horiz-adv-x="990" 
d="M390 714h-326v-55h129v-357h68v357h129v55zM927 714h-104l-121 -313l-123 313h-105v-412h68v344h2l135 -344h43l135 344h2v-344h68v412z" />
    <glyph glyph-name="scaron" horiz-adv-x="500" 
d="M31 163q2 -48 20 -81.5t48 -54t68.5 -30t82.5 -9.5q39 0 78.5 8t71 27t51 50.5t19.5 77.5q0 37 -14.5 62t-38 41.5t-54 26.5t-62.5 17l-60 13.5t-54 16t-39.5 23.5t-15.5 37q0 19 10 32t26 20.5t35.5 10.5t38.5 3q21 0 41.5 -4.5t37 -14.5t28 -26.5t13.5 -41.5h85
q-3 47 -20 78.5t-45.5 50t-66 26t-80.5 7.5q-34 0 -68.5 -8.5t-62 -26t-45 -45.5t-17.5 -67q0 -37 14.5 -62t38.5 -41t54 -26t62 -17l62.5 -13.5t54 -16.5t38 -25.5t14.5 -40.5q0 -24 -12 -39.5t-30.5 -23.5t-40.5 -11t-42 -3q-26 0 -50.5 5t-44 16.5t-31.5 30.5t-13 48h-85
zM400 731h-77l-70 -96l-69 96h-84l104 -143h93z" />
    <glyph glyph-name="scaron" unicode="&#x161;" horiz-adv-x="500" 
d="M31 163q2 -48 20 -81.5t48 -54t68.5 -30t82.5 -9.5q39 0 78.5 8t71 27t51 50.5t19.5 77.5q0 37 -14.5 62t-38 41.5t-54 26.5t-62.5 17l-60 13.5t-54 16t-39.5 23.5t-15.5 37q0 19 10 32t26 20.5t35.5 10.5t38.5 3q21 0 41.5 -4.5t37 -14.5t28 -26.5t13.5 -41.5h85
q-3 47 -20 78.5t-45.5 50t-66 26t-80.5 7.5q-34 0 -68.5 -8.5t-62 -26t-45 -45.5t-17.5 -67q0 -37 14.5 -62t38.5 -41t54 -26t62 -17l62.5 -13.5t54 -16.5t38 -25.5t14.5 -40.5q0 -24 -12 -39.5t-30.5 -23.5t-40.5 -11t-42 -3q-26 0 -50.5 5t-44 16.5t-31.5 30.5t-13 48h-85
zM400 731h-77l-70 -96l-69 96h-84l104 -143h93z" />
    <glyph glyph-name="guilsinglright" horiz-adv-x="259" 
d="M57 442v-86l100 -78l-100 -78v-86l152 120v88z" />
    <glyph glyph-name="guilsinglright" unicode="&#x203a;" horiz-adv-x="259" 
d="M57 442v-86l100 -78l-100 -78v-86l152 120v88z" />
    <glyph glyph-name="oe" horiz-adv-x="891" 
d="M864 233q3 61 -8.5 115t-39.5 94t-73.5 63.5t-109.5 23.5q-55 0 -105.5 -22.5t-77.5 -68.5q-26 54 -72.5 72.5t-106.5 18.5t-104 -21t-73.5 -57.5t-43.5 -85.5t-14 -106q0 -55 14 -104.5t42.5 -86.5t73 -58.5t105.5 -21.5q58 0 106.5 23t72.5 79q24 -56 73.5 -79
t114.5 -23q170 0 221 176h-81q-15 -48 -52 -74.5t-88 -26.5q-38 0 -66.5 14t-47 37.5t-27.5 54t-8 64.5h375zM489 308q-1 64 38 105t106 41t104 -40t37 -106h-285zM415 260q0 -35 -6.5 -70t-23 -63.5t-44 -46t-70.5 -17.5q-39 0 -67 16.5t-45 43t-25 59.5t-8 66q0 38 7.5 75
t24.5 66t44.5 47t68.5 18q44 0 72 -17t44 -44.5t22 -62t6 -70.5z" />
    <glyph glyph-name="oe" unicode="&#x153;" horiz-adv-x="891" 
d="M864 233q3 61 -8.5 115t-39.5 94t-73.5 63.5t-109.5 23.5q-55 0 -105.5 -22.5t-77.5 -68.5q-26 54 -72.5 72.5t-106.5 18.5t-104 -21t-73.5 -57.5t-43.5 -85.5t-14 -106q0 -55 14 -104.5t42.5 -86.5t73 -58.5t105.5 -21.5q58 0 106.5 23t72.5 79q24 -56 73.5 -79
t114.5 -23q170 0 221 176h-81q-15 -48 -52 -74.5t-88 -26.5q-38 0 -66.5 14t-47 37.5t-27.5 54t-8 64.5h375zM489 308q-1 64 38 105t106 41t104 -40t37 -106h-285zM415 260q0 -35 -6.5 -70t-23 -63.5t-44 -46t-70.5 -17.5q-39 0 -67 16.5t-45 43t-25 59.5t-8 66q0 38 7.5 75
t24.5 66t44.5 47t68.5 18q44 0 72 -17t44 -44.5t22 -62t6 -70.5z" />
    <glyph glyph-name="zcaron" horiz-adv-x="480" 
d="M22 0h436v75h-330l316 384v58h-402v-75h292l-312 -377v-65zM390 731h-77l-70 -96l-69 96h-84l104 -143h93z" />
    <glyph glyph-name="zcaron" unicode="&#x17e;" horiz-adv-x="480" 
d="M22 0h436v75h-330l316 384v58h-402v-75h292l-312 -377v-65zM390 731h-77l-70 -96l-69 96h-84l104 -143h93z" />
    <glyph glyph-name="Ydieresis" horiz-adv-x="648" 
d="M646 714h-108l-209 -340l-214 340h-113l276 -422v-292h95v292zM373 769h90v104h-90v-104zM185 769h90v104h-90v-104z" />
    <glyph glyph-name="Ydieresis" unicode="&#x178;" horiz-adv-x="648" 
d="M646 714h-108l-209 -340l-214 340h-113l276 -422v-292h95v292zM373 769h90v104h-90v-104zM185 769h90v104h-90v-104z" />
    <glyph glyph-name="exclamdown" unicode="&#xa1;" horiz-adv-x="259" 
d="M82 -198h95v220l-25 311h-45l-25 -311v-220zM185 517h-111v-111h111v111z" />
    <glyph glyph-name="cent" unicode="&#xa2;" 
d="M272 63q-36 3 -62 20t-42.5 43t-24 59t-7.5 67q0 37 7 71.5t22.5 62t41.5 45.5t65 23v-391zM272 -116h39v104q47 0 83.5 17.5t62.5 46t41 64.5t19 73h-85q-8 -51 -37.5 -86t-83.5 -40v391q48 -2 77 -29.5t39 -73.5h87q-11 91 -66 133.5t-137 44.5v95h-39v-95
q-56 -4 -98.5 -27.5t-71 -61t-42.5 -86t-14 -102.5q0 -56 15 -103t43.5 -82t70.5 -56t97 -23v-104z" />
    <glyph glyph-name="sterling" unicode="&#xa3;" 
d="M47 327h85q9 -20 17 -45t8 -48q0 -29 -9 -55t-24.5 -49t-35.5 -42t-41 -33l47 -66q23 16 47 25.5t53 9.5t54.5 -6.5t50.5 -14.5q26 -8 50 -14t49 -6q39 0 77.5 10t68.5 36l-43 66q-18 -14 -41.5 -25.5t-47.5 -11.5q-23 0 -43.5 6l-40.5 12q-20 5 -43 10t-52 5
q-30 0 -54.5 -9t-50.5 -20l-2 2q22 18 43 37t37.5 41.5t26 49t9.5 60.5q0 21 -6 40t-14 35h137v45h-159l-18 35t-16.5 35t-12.5 38t-5 45q0 28 11 52t30.5 41.5t45.5 27.5t56 10q72 0 108 -48t38 -135h85q2 129 -61.5 193.5t-174.5 64.5q-46 0 -87 -14t-72.5 -40t-50 -63.5
t-18.5 -85.5q0 -47 13.5 -84.5t33.5 -71.5h-58v-45z" />
    <glyph glyph-name="currency" unicode="&#xa4;" 
d="M25 555l57 -58q-28 -28 -41 -67t-13 -81t13.5 -79t38.5 -67l-55 -58l48 -48l55 58q30 -27 69 -40.5t83 -13.5q42 0 80.5 14t67.5 41l56 -58l47 47l-55 56q26 31 39 69.5t13 80.5t-13 81t-39 67l55 55l-50 51l-57 -56q-27 23 -65 36.5t-78 13.5q-42 0 -82 -13.5t-69 -37.5
l-56 56zM281 524q34 0 64 -14t51.5 -37.5t34 -55t12.5 -66.5q0 -36 -12.5 -68t-34 -55.5t-51.5 -37.5t-65 -14t-65.5 13.5t-53 36.5t-35.5 55t-13 68q0 37 13 69t35.5 55.5t53 37t66.5 13.5z" />
    <glyph glyph-name="yen" unicode="&#xa5;" 
d="M232 0h95v174h144v60h-144v42l18 33h126v60h-93l178 345h-104l-169 -353l-174 353h-109l183 -345h-92v-60h123l18 -33v-42h-141v-60h141v-174z" />
    <glyph glyph-name="brokenbar" unicode="&#xa6;" horiz-adv-x="222" 
d="M77 -89h68v250h-68v-250zM145 661h-68v-250h68v250z" />
    <glyph glyph-name="section" unicode="&#xa7;" 
d="M190 420q34 -23 68.5 -43.5l69.5 -41.5l34.5 -21.5t34.5 -26t26.5 -32t10.5 -38.5q0 -34 -21.5 -57.5t-50.5 -35.5q-34 23 -69 43.5t-71 39.5l-37 22.5t-34 25.5t-24.5 32t-9.5 42q0 32 22 56.5t51 34.5zM465 546q-2 94 -52 139.5t-132 45.5q-35 0 -68 -10.5t-59 -31.5
t-42 -51t-16 -69q0 -32 12 -57.5t34 -48.5q-22 -6 -41.5 -19.5t-34 -32t-23 -41t-8.5 -45.5q0 -41 15 -72t39.5 -56t56 -44.5t63.5 -36.5l64 -35t55.5 -35t39.5 -39t15 -47q0 -21 -9 -36.5t-23 -26t-32.5 -15.5t-36.5 -5q-51 0 -82 31.5t-32 82.5h-85q6 -88 59 -138.5
t142 -50.5q40 0 74.5 11.5t59.5 32.5t39 50.5t14 65.5q0 76 -59 120q22 9 41.5 23.5t33 34t21.5 42.5t8 47q0 36 -14.5 65t-37.5 52t-53 41.5t-61 35.5l-61.5 33t-53 33.5t-37.5 37t-14 43.5q0 44 27.5 65t67.5 21q48 0 74 -32t27 -78h85z" />
    <glyph glyph-name="dieresis" unicode="&#xa8;" horiz-adv-x="222" 
d="M160 592h90v104h-90v-104zM-28 592h90v104h-90v-104z" />
    <glyph glyph-name="copyright" unicode="&#xa9;" horiz-adv-x="800" 
d="M24 359q0 -81 30 -149.5t81.5 -119t120 -79t145.5 -28.5q76 0 144.5 28.5t119.5 79t81 119t30 149.5q0 79 -30 147t-81 118t-119.5 78.5t-144.5 28.5q-77 0 -145.5 -28.5t-120 -78.5t-81.5 -118t-30 -147zM92 359q0 67 23.5 124.5t65 100.5t98 67.5t122.5 24.5
q65 0 121 -24.5t97.5 -67.5t65 -100.5t23.5 -124.5q0 -69 -23.5 -127.5t-65 -101.5t-97.5 -67.5t-121 -24.5q-66 0 -122.5 24.5t-98 67.5t-65 101.5t-23.5 127.5zM535 285q-7 -45 -39.5 -73.5t-82.5 -28.5q-36 0 -64.5 14.5t-48.5 38.5t-30.5 56t-10.5 67q0 36 10 67
t29 54.5t47.5 36.5t65.5 13q50 0 83 -27.5t41 -69.5h63q-6 37 -22.5 65.5t-41.5 48t-56.5 29t-67.5 9.5q-51 0 -92 -17t-69 -47t-43 -72t-15 -92q0 -49 15.5 -91t44.5 -72.5t70 -48t92 -17.5q69 0 119.5 42t66.5 115h-64z" />
    <glyph glyph-name="ordfeminine" unicode="&#xaa;" horiz-adv-x="378" 
d="M317 622q0 27 -12 44t-30.5 26.5t-42 13t-45.5 3.5q-29 0 -55 -5.5t-46 -18.5t-32.5 -33t-13.5 -49h60q2 32 24.5 44t58.5 12q14 0 28 -1.5t25 -6.5t17.5 -15t6.5 -26q0 -10 -5 -16.5t-17.5 -11t-35 -7.5t-57.5 -7q-22 -2 -43.5 -8t-38.5 -17.5t-27.5 -29.5t-10.5 -44
q0 -23 9.5 -40t25.5 -28t37 -16t45 -5q73 0 117 46q3 -46 51 -46q13 0 23 2t20 6v44q-5 -2 -11 -2h-11q-8 0 -11 7t-3 25v160zM155 430q-25 0 -43.5 7.5t-18.5 33.5t18.5 36.5t45.5 15.5q28 5 56 9t44 14v-47q0 -11 -5.5 -23.5t-17.5 -22.5t-31.5 -16.5t-47.5 -6.5z" />
    <glyph glyph-name="guillemotleft" unicode="&#xab;" horiz-adv-x="463" 
d="M398 114v86l-100 78l100 78v86l-152 -120v-88zM202 114v86l-100 78l100 78v86l-152 -120v-88z" />
    <glyph glyph-name="logicalnot" unicode="&#xac;" horiz-adv-x="600" 
d="M552 388h-504v-68h436v-211h68v279z" />
    <glyph glyph-name="registered" unicode="&#xae;" horiz-adv-x="800" 
d="M24 359q0 -81 30 -149.5t81.5 -119t120 -79t145.5 -28.5q76 0 144.5 28.5t119.5 79t81 119t30 149.5q0 79 -30 147t-81 118t-119.5 78.5t-144.5 28.5q-77 0 -145.5 -28.5t-120 -78.5t-81.5 -118t-30 -147zM92 359q0 67 23.5 125t65 100.5t98 67t122.5 24.5
q65 0 121 -24.5t97.5 -67t65 -100.5t23.5 -125q0 -69 -23.5 -127.5t-65 -101.5t-97.5 -67.5t-121 -24.5q-66 0 -122.5 24.5t-98 67.5t-65 101.5t-23.5 127.5zM255 139h68v188h72l119 -188h73l-125 193q49 5 82 32.5t33 86.5q0 63 -37.5 94t-115.5 31h-169v-437zM323 521h90
q17 0 34.5 -2.5t31 -9.5t22 -20t8.5 -35q0 -26 -9.5 -40.5t-25.5 -21.5t-37 -8.5t-43 -1.5h-71v139z" />
    <glyph glyph-name="macron" unicode="&#xaf;" horiz-adv-x="222" 
d="M-59 620h341v55h-341v-55z" />
    <glyph glyph-name="macron" unicode="&#x2c9;" horiz-adv-x="222" 
d="M-59 620h341v55h-341v-55z" />
    <glyph glyph-name="degree" unicode="&#xb0;" horiz-adv-x="400" 
d="M56 565q0 -30 11 -56.5t30.5 -46t46 -30.5t56.5 -11t56 11t45.5 30.5t31 46t11.5 56.5t-11.5 56t-31 45.5t-45.5 31t-56 11.5t-56.5 -11.5t-46 -31t-30.5 -45.5t-11 -56zM106 565q0 18 6.5 34.5t18.5 30t29.5 21.5t39.5 8t39.5 -8t29.5 -21.5t18.5 -30t6.5 -34.5
t-6.5 -34.5t-18.5 -30t-29.5 -21.5t-39.5 -8t-39.5 8t-29.5 21.5t-18.5 30t-6.5 34.5z" />
    <glyph glyph-name="plusminus" unicode="&#xb1;" horiz-adv-x="600" 
d="M48 271h218v-167h68v167h218v68h-218v166h-68v-166h-218v-68zM48 0h504v68h-504v-68z" />
    <glyph glyph-name="twosuperior" unicode="&#xb2;" horiz-adv-x="333" 
d="M90 555q0 39 18.5 69t63.5 30q35 0 59 -19t24 -51q0 -22 -7 -39t-21.5 -31.5t-36.5 -28.5l-51 -31q-24 -14 -46 -28.5t-39 -34.5t-27.5 -46.5t-12.5 -64.5h303v55h-235q4 15 16.5 28.5t30 25.5t39 24t42.5 25q21 12 41.5 26t36 31t25.5 38.5t10 49.5q0 30 -11.5 53.5
t-32 39.5t-47.5 24.5t-57 8.5q-70 0 -111.5 -42.5t-41.5 -111.5h68z" />
    <glyph glyph-name="threesuperior" unicode="&#xb3;" horiz-adv-x="333" 
d="M132 477h33q18 0 34.5 -4t29.5 -13.5t21 -24t8 -35.5q0 -34 -28 -53t-66 -19q-44 0 -67.5 22t-24.5 64h-68q0 -35 12.5 -61.5t34 -44t51 -26.5t62.5 -9q31 0 60.5 8t52 24t36 40.5t13.5 57.5q0 38 -21.5 66t-65.5 36v2q28 11 48 33.5t20 51.5t-11 51t-30.5 36.5t-46 22
t-57.5 7.5q-67 0 -105.5 -38t-42.5 -103h68q0 37 19.5 61.5t60.5 24.5q33 0 55 -16t22 -46q0 -35 -25 -50t-58 -15h-24v-50z" />
    <glyph glyph-name="acute" unicode="&#xb4;" horiz-adv-x="222" 
d="M50 588h64l131 143h-109z" />
    <glyph glyph-name="mu" unicode="&#xb5;" 
d="M492 517h-85v-292q0 -35 -9.5 -64.5t-28.5 -51.5t-47.5 -34t-67.5 -12q-49 0 -77 28t-28 76v350h-85v-715h85v224h2q13 -20 36 -29t55 -9q56 0 98.5 23t69.5 71h2v-82h80v517z" />
    <glyph glyph-name="mu" unicode="&#x3bc;" 
d="M492 517h-85v-292q0 -35 -9.5 -64.5t-28.5 -51.5t-47.5 -34t-67.5 -12q-49 0 -77 28t-28 76v350h-85v-715h85v224h2q13 -20 36 -29t55 -9q56 0 98.5 23t69.5 71h2v-82h80v517z" />
    <glyph glyph-name="paragraph" unicode="&#xb6;" horiz-adv-x="600" 
d="M515 714h-239q-106 0 -167 -54t-61 -152q0 -39 15.5 -73t43 -59t66 -39.5t84.5 -14.5v-477h68v814h122v-814h68v869z" />
    <glyph glyph-name="periodcentered" unicode="&#xb7;" horiz-adv-x="278" 
d="M75 311q0 -26 19.5 -45t45.5 -19q25 0 44 20t19 44q0 26 -19 45t-45 19t-45 -19t-19 -45z" />
    <glyph glyph-name="periodcentered" unicode="&#x2219;" horiz-adv-x="278" 
d="M75 311q0 -26 19.5 -45t45.5 -19q25 0 44 20t19 44q0 26 -19 45t-45 19t-45 -19t-19 -45z" />
    <glyph glyph-name="cedilla" unicode="&#xb8;" horiz-adv-x="222" 
d="M5 -191q23 -8 45.5 -13.5t46.5 -5.5q21 0 43 4.5t40 15t29.5 27.5t11.5 42q0 18 -7 32t-19 23t-27 13.5t-31 4.5q-23 0 -33 -7l-2 2l42 53h-42l-61 -78l17 -28q11 4 20 6t21 2q20 0 33.5 -8.5t13.5 -22.5q0 -9 -6 -14.5t-15 -9.5t-20 -5.5t-21 -1.5q-16 0 -32.5 4
t-28.5 9z" />
    <glyph glyph-name="onesuperior" unicode="&#xb9;" horiz-adv-x="333" 
d="M249 709h-50q-5 -21 -17 -34.5t-30 -21.5t-40 -11.5t-46 -3.5v-50h115v-308h68v429z" />
    <glyph glyph-name="ordmasculine" unicode="&#xba;" horiz-adv-x="384" 
d="M192 709q-41 0 -72 -13t-52 -35.5t-32 -52.5t-11 -65q0 -36 11.5 -65.5t33 -51.5t52.5 -34t71 -12q82 0 124 45.5t42 117.5q0 35 -11 65.5t-32 53t-52 35t-72 12.5zM192 659q16 0 33.5 -4.5t32 -17.5t24 -36t9.5 -59q0 -23 -5.5 -43t-17 -35.5t-30 -24.5t-45.5 -9t-46 9
t-31 25t-17.5 36t-5.5 43q0 60 29 88t70 28z" />
    <glyph glyph-name="guillemotright" unicode="&#xbb;" horiz-adv-x="463" 
d="M65 442v-86l100 -78l-100 -78v-86l152 120v88zM261 442v-86l100 -78l-100 -78v-86l152 120v88z" />
    <glyph glyph-name="onequarter" unicode="&#xbc;" horiz-adv-x="834" 
d="M723 429h-51l-210 -275v-58h199v-96h62v96h60v55h-60v278zM659 344h2v-193h-150zM150 -28h64l435 753h-64zM219 709h-50q-5 -21 -17 -34.5t-30 -22t-40 -11.5t-46 -3v-50h115v-308h68v429z" />
    <glyph glyph-name="onehalf" unicode="&#xbd;" horiz-adv-x="834" 
d="M135 -28h64l435 753h-64zM219 709h-50q-5 -21 -17 -34.5t-30 -22t-40 -11.5t-46 -3v-50h115v-308h68v429zM570 275q0 39 18.5 69t63.5 30q35 0 59 -19t24 -51q0 -22 -7 -39t-21.5 -31.5t-36.5 -28.5l-51 -31q-24 -14 -46 -28.5t-39 -34.5t-27.5 -46.5t-12.5 -64.5h303v55
h-235q4 15 16.5 28.5t30 25.5t39 24t42.5 25q21 12 41.5 26t36 31t25.5 38.5t10 49.5q0 30 -11.5 53.5t-32 39.5t-47.5 24.5t-57 8.5q-70 0 -111.5 -42.5t-41.5 -111.5h68z" />
    <glyph glyph-name="threequarters" unicode="&#xbe;" horiz-adv-x="834" 
d="M740 429h-51l-210 -275v-58h199v-96h62v96h60v55h-60v278zM677 340h2v-193h-150zM215 -28h64l435 753h-64zM177 477h33q18 0 34.5 -4t29.5 -13.5t21 -24t8 -35.5q0 -34 -28 -53t-66 -19q-44 0 -67.5 22t-24.5 64h-68q0 -35 12.5 -61.5t34 -44t51 -26.5t62.5 -9
q31 0 60.5 8t52 24t36 40.5t13.5 57.5q0 38 -21.5 66t-65.5 36v2q28 11 48 33.5t20 51.5t-11 51t-30.5 36.5t-46 22t-57.5 7.5q-67 0 -105.5 -38t-42.5 -103h68q0 37 19.5 61.5t60.5 24.5q33 0 55 -16t22 -46q0 -35 -25 -50t-58 -15h-24v-50z" />
    <glyph glyph-name="questiondown" unicode="&#xbf;" 
d="M418 30q0 -35 -8 -65t-25.5 -52t-43.5 -35t-62 -13q-54 0 -85.5 31t-35.5 86q-2 28 4.5 49.5t18 39t26 32.5l29.5 30l31 31.5t29 36.5t21.5 44t8.5 55v39h-85v-31q0 -26 -7.5 -46.5t-20 -38t-28 -33l-31.5 -30.5q-17 -16 -32.5 -33t-27.5 -37t-19 -44.5t-7 -55.5
q0 -48 15.5 -85t43.5 -62.5t67 -39t85 -13.5q52 0 94 18t71 50.5t44.5 76.5t14.5 95h-85zM337 517h-111v-111h111v111z" />
    <glyph glyph-name="Agrave" unicode="&#xc0;" horiz-adv-x="648" 
d="M-7 0h98l80 215h302l78 -215h105l-279 714h-105zM322 628h2l119 -333h-242zM321 765h64l-86 143h-109z" />
    <glyph glyph-name="Aacute" unicode="&#xc1;" horiz-adv-x="648" 
d="M-7 0h98l80 215h302l78 -215h105l-279 714h-105zM322 628h2l119 -333h-242zM263 765h64l131 143h-109z" />
    <glyph glyph-name="Acircumflex" unicode="&#xc2;" horiz-adv-x="648" 
d="M-7 0h98l80 215h302l78 -215h105l-279 714h-105zM322 628h2l119 -333h-242zM174 765h77l70 96l69 -96h84l-104 143h-93z" />
    <glyph glyph-name="Atilde" unicode="&#xc3;" horiz-adv-x="648" 
d="M-7 0h98l80 215h302l78 -215h105l-279 714h-105zM322 628h2l119 -333h-242zM446 888q-5 -15 -15.5 -29.5t-30.5 -14.5q-16 0 -32.5 6t-33.5 14t-35.5 14t-38.5 6q-24 0 -41 -9t-29 -24t-20.5 -35t-14.5 -42h52q-1 9 3.5 17t11.5 13.5t16 8.5t17 3q14 0 31.5 -6t35.5 -13
q18 -8 35.5 -14t30.5 -6q29 0 47.5 8.5t31.5 22.5q25 36 31 80h-52z" />
    <glyph glyph-name="Adieresis" unicode="&#xc4;" horiz-adv-x="648" 
d="M-7 0h98l80 215h302l78 -215h105l-279 714h-105zM322 628h2l119 -333h-242zM373 769h90v104h-90v-104zM185 769h90v104h-90v-104z" />
    <glyph glyph-name="Aring" unicode="&#xc5;" horiz-adv-x="648" 
d="M-7 0h98l80 215h302l78 -215h105l-279 714h-105zM322 628h2l119 -333h-242zM256 839q0 29 19.5 48.5t48.5 19.5t48.5 -19.5t19.5 -48.5t-19.5 -48.5t-48.5 -19.5t-48.5 19.5t-19.5 48.5zM211 839q0 -23 9 -43.5t24.5 -36t36 -24.5t43.5 -9t43.5 9t36 24.5t24.5 36t9 43.5
t-9 43.5t-24.5 36t-36 24.5t-43.5 9t-43.5 -9t-36 -24.5t-24.5 -36t-9 -43.5z" />
    <glyph glyph-name="AE" unicode="&#xc6;" horiz-adv-x="926" 
d="M-7 0h107l102 208h246v-208h447v80h-357v247h330v80h-330v227h351v80h-535zM448 634v-346h-209l168 346h41z" />
    <glyph glyph-name="Ccedilla" unicode="&#xc7;" horiz-adv-x="722" 
d="M675 499q-8 57 -34 100.5t-65 72.5t-89 44t-106 15q-83 0 -146 -29.5t-105.5 -80.5t-64.5 -119.5t-22 -146.5q0 -74 18.5 -139t55 -114.5t92.5 -80t131 -36.5l-49 -63l17 -28q11 4 20 6t21 2q20 0 33.5 -8.5t13.5 -22.5q0 -9 -6 -14.5t-15 -9.5t-20 -5.5t-21 -1.5
q-16 0 -32.5 4t-28.5 9l-18 -44q23 -8 45.5 -13.5t46.5 -5.5q21 0 43 4.5t40 15t29.5 27.5t11.5 42q0 18 -7 32t-19 23t-27 13.5t-31 4.5q-23 0 -33 -7l-2 2l29 37q132 2 209.5 77.5t91.5 207.5h-95q-3 -44 -18 -82t-41.5 -65.5t-63 -43t-83.5 -15.5q-64 0 -110 24
t-75.5 64.5t-43.5 95t-14 115.5q0 56 14 108t43.5 92.5t75 64.5t109.5 24q37 0 70 -9.5t59.5 -28.5t44.5 -47.5t26 -66.5h95z" />
    <glyph glyph-name="Egrave" unicode="&#xc8;" horiz-adv-x="611" 
d="M78 0h496v80h-401v247h371v80h-371v227h398v80h-493v-714zM303 765h64l-86 143h-109z" />
    <glyph glyph-name="Eacute" unicode="&#xc9;" horiz-adv-x="611" 
d="M78 0h496v80h-401v247h371v80h-371v227h398v80h-493v-714zM245 765h64l131 143h-109z" />
    <glyph glyph-name="Ecircumflex" unicode="&#xca;" horiz-adv-x="611" 
d="M78 0h496v80h-401v247h371v80h-371v227h398v80h-493v-714zM156 765h77l70 96l69 -96h84l-104 143h-93z" />
    <glyph glyph-name="Edieresis" unicode="&#xcb;" horiz-adv-x="611" 
d="M78 0h496v80h-401v247h371v80h-371v227h398v80h-493v-714zM355 769h90v104h-90v-104zM167 769h90v104h-90v-104z" />
    <glyph glyph-name="Igrave" unicode="&#xcc;" horiz-adv-x="259" 
d="M82 0h95v714h-95v-714zM127 765h64l-86 143h-109z" />
    <glyph glyph-name="Iacute" unicode="&#xcd;" horiz-adv-x="259" 
d="M82 0h95v714h-95v-714zM69 765h64l131 143h-109z" />
    <glyph glyph-name="Icircumflex" unicode="&#xce;" horiz-adv-x="259" 
d="M82 0h95v714h-95v-714zM-20 765h77l70 96l69 -96h84l-104 143h-93z" />
    <glyph glyph-name="Idieresis" unicode="&#xcf;" horiz-adv-x="259" 
d="M82 0h95v714h-95v-714zM179 769h90v104h-90v-104zM-9 769h90v104h-90v-104z" />
    <glyph glyph-name="Eth" unicode="&#xd0;" horiz-adv-x="704" 
d="M78 0h245q89 0 154 25t107 72.5t62 117t20 159.5q0 172 -89 256t-254 84h-245v-307h-70v-68h70v-339zM173 634h160q66 0 111 -19t73.5 -54t41 -85.5t12.5 -114.5q0 -66 -13.5 -112.5t-34.5 -77.5t-47.5 -49t-53.5 -27.5t-51 -12t-40 -2.5h-158v259h214v68h-214v227z" />
    <glyph glyph-name="Ntilde" unicode="&#xd1;" horiz-adv-x="722" 
d="M77 0h90v573h2l373 -573h104v714h-90v-579h-2l-376 579h-101v-714zM483 888q-5 -15 -15.5 -29.5t-30.5 -14.5q-16 0 -32.5 6t-33.5 14t-35.5 14t-38.5 6q-24 0 -41 -9t-29 -24t-20.5 -35t-14.5 -42h52q-1 9 3.5 17t11.5 13.5t16 8.5t17 3q14 0 31.5 -6t35.5 -13
q18 -8 35.5 -14t30.5 -6q29 0 47.5 8.5t31.5 22.5q25 36 31 80h-52z" />
    <glyph glyph-name="Ograve" unicode="&#xd2;" horiz-adv-x="760" 
d="M38 357q0 -73 21.5 -140.5t64.5 -119.5t107 -83t149 -31t149 31t107 83t64.5 119.5t21.5 140.5t-21.5 140.5t-64.5 119.5t-107 83t-149 31t-149 -31t-107 -83t-64.5 -119.5t-21.5 -140.5zM133 357q0 54 14 106.5t44 94.5t77 67.5t112 25.5t112 -25.5t77 -67.5t44 -94.5
t14 -106.5t-14 -106.5t-44 -94.5t-77 -67.5t-112 -25.5t-112 25.5t-77 67.5t-44 94.5t-14 106.5zM377 765h64l-86 143h-109z" />
    <glyph glyph-name="Oacute" unicode="&#xd3;" horiz-adv-x="760" 
d="M38 357q0 -73 21.5 -140.5t64.5 -119.5t107 -83t149 -31t149 31t107 83t64.5 119.5t21.5 140.5t-21.5 140.5t-64.5 119.5t-107 83t-149 31t-149 -31t-107 -83t-64.5 -119.5t-21.5 -140.5zM133 357q0 54 14 106.5t44 94.5t77 67.5t112 25.5t112 -25.5t77 -67.5t44 -94.5
t14 -106.5t-14 -106.5t-44 -94.5t-77 -67.5t-112 -25.5t-112 25.5t-77 67.5t-44 94.5t-14 106.5zM319 765h64l131 143h-109z" />
    <glyph glyph-name="Ocircumflex" unicode="&#xd4;" horiz-adv-x="760" 
d="M38 357q0 -73 21.5 -140.5t64.5 -119.5t107 -83t149 -31t149 31t107 83t64.5 119.5t21.5 140.5t-21.5 140.5t-64.5 119.5t-107 83t-149 31t-149 -31t-107 -83t-64.5 -119.5t-21.5 -140.5zM133 357q0 54 14 106.5t44 94.5t77 67.5t112 25.5t112 -25.5t77 -67.5t44 -94.5
t14 -106.5t-14 -106.5t-44 -94.5t-77 -67.5t-112 -25.5t-112 25.5t-77 67.5t-44 94.5t-14 106.5zM230 765h77l70 96l69 -96h84l-104 143h-93z" />
    <glyph glyph-name="Otilde" unicode="&#xd5;" horiz-adv-x="760" 
d="M38 357q0 -73 21.5 -140.5t64.5 -119.5t107 -83t149 -31t149 31t107 83t64.5 119.5t21.5 140.5t-21.5 140.5t-64.5 119.5t-107 83t-149 31t-149 -31t-107 -83t-64.5 -119.5t-21.5 -140.5zM133 357q0 54 14 106.5t44 94.5t77 67.5t112 25.5t112 -25.5t77 -67.5t44 -94.5
t14 -106.5t-14 -106.5t-44 -94.5t-77 -67.5t-112 -25.5t-112 25.5t-77 67.5t-44 94.5t-14 106.5zM502 888q-5 -15 -15.5 -29.5t-30.5 -14.5q-16 0 -32.5 6t-33.5 14t-35.5 14t-38.5 6q-24 0 -41 -9t-29 -24t-20.5 -35t-14.5 -42h52q-1 9 3.5 17t11.5 13.5t16 8.5t17 3
q14 0 31.5 -6t35.5 -13q18 -8 35.5 -14t30.5 -6q29 0 47.5 8.5t31.5 22.5q25 36 31 80h-52z" />
    <glyph glyph-name="Odieresis" unicode="&#xd6;" horiz-adv-x="760" 
d="M38 357q0 -73 21.5 -140.5t64.5 -119.5t107 -83t149 -31t149 31t107 83t64.5 119.5t21.5 140.5t-21.5 140.5t-64.5 119.5t-107 83t-149 31t-149 -31t-107 -83t-64.5 -119.5t-21.5 -140.5zM133 357q0 54 14 106.5t44 94.5t77 67.5t112 25.5t112 -25.5t77 -67.5t44 -94.5
t14 -106.5t-14 -106.5t-44 -94.5t-77 -67.5t-112 -25.5t-112 25.5t-77 67.5t-44 94.5t-14 106.5zM429 769h90v104h-90v-104zM241 769h90v104h-90v-104z" />
    <glyph glyph-name="multiply" unicode="&#xd7;" horiz-adv-x="600" 
d="M119 24l182 182l181 -182l48 48l-181 182l180 180l-48 48l-180 -180l-181 180l-48 -48l181 -180l-182 -182z" />
    <glyph glyph-name="Oslash" unicode="&#xd8;" horiz-adv-x="760" 
d="M183 170q-26 40 -38 88t-12 99q0 54 14 106.5t44 94.5t77 67.5t112 25.5q57 0 100 -20t72 -54zM579 541q25 -39 36.5 -87t11.5 -97q0 -54 -14 -106.5t-44 -94.5t-77 -67.5t-112 -25.5q-57 0 -99 19t-71 52zM691 730l-79 -87q-42 41 -99.5 64.5t-132.5 23.5
q-85 0 -149 -31t-107 -83t-64.5 -119.5t-21.5 -140.5q0 -72 20.5 -138t62.5 -117l-84 -92l33 -30l81 89q42 -40 99 -63t130 -23q85 0 149 31t107 83t64.5 119.5t21.5 140.5q0 71 -20 136t-61 117l82 90z" />
    <glyph glyph-name="Ugrave" unicode="&#xd9;" horiz-adv-x="722" 
d="M648 714h-95v-456q0 -95 -47.5 -145t-138.5 -50q-95 0 -146.5 50t-51.5 145v456h-95v-456q0 -71 20 -123t57.5 -86t92 -50t123.5 -16q134 0 207.5 69.5t73.5 205.5v456zM358 765h64l-86 143h-109z" />
    <glyph glyph-name="Uacute" unicode="&#xda;" horiz-adv-x="722" 
d="M648 714h-95v-456q0 -95 -47.5 -145t-138.5 -50q-95 0 -146.5 50t-51.5 145v456h-95v-456q0 -71 20 -123t57.5 -86t92 -50t123.5 -16q134 0 207.5 69.5t73.5 205.5v456zM300 765h64l131 143h-109z" />
    <glyph glyph-name="Ucircumflex" unicode="&#xdb;" horiz-adv-x="722" 
d="M648 714h-95v-456q0 -95 -47.5 -145t-138.5 -50q-95 0 -146.5 50t-51.5 145v456h-95v-456q0 -71 20 -123t57.5 -86t92 -50t123.5 -16q134 0 207.5 69.5t73.5 205.5v456zM211 765h77l70 96l69 -96h84l-104 143h-93z" />
    <glyph glyph-name="Udieresis" unicode="&#xdc;" horiz-adv-x="722" 
d="M648 714h-95v-456q0 -95 -47.5 -145t-138.5 -50q-95 0 -146.5 50t-51.5 145v456h-95v-456q0 -71 20 -123t57.5 -86t92 -50t123.5 -16q134 0 207.5 69.5t73.5 205.5v456zM410 769h90v104h-90v-104zM222 769h90v104h-90v-104z" />
    <glyph glyph-name="Yacute" unicode="&#xdd;" horiz-adv-x="648" 
d="M646 714h-108l-209 -340l-214 340h-113l276 -422v-292h95v292zM263 765h64l131 143h-109z" />
    <glyph glyph-name="Thorn" unicode="&#xde;" horiz-adv-x="648" 
d="M173 0v178h218q107 -1 163 54.5t56 155.5t-56 156t-163 56h-218v114h-95v-714h95zM173 520h186q81 0 118.5 -33.5t37.5 -98.5q0 -64 -37.5 -97.5t-118.5 -32.5h-186v262z" />
    <glyph glyph-name="germandbls" unicode="&#xdf;" 
d="M64 0h85v516q0 42 8.5 69t24.5 42.5t38 22t48 6.5q24 0 44 -9t35 -24t23.5 -35.5t8.5 -44.5q0 -35 -12.5 -58t-33.5 -36.5t-48.5 -18.5t-57.5 -3v-68q42 0 76 -5t58 -21t37 -45.5t13 -78.5q0 -65 -40.5 -105.5t-109.5 -40.5q-8 0 -17 0.5t-17 2.5v-74q11 -2 21.5 -3
t21.5 -1q51 0 93.5 17t73 47.5t47.5 73.5t17 94q0 33 -8.5 63.5t-25.5 54.5t-42.5 40.5t-59.5 20.5v2q56 18 80 58.5t24 96.5q0 43 -18.5 76t-48 55t-66.5 33t-74 11q-45 0 -81.5 -14.5t-62.5 -41t-40 -63t-14 -81.5v-531z" />
    <glyph glyph-name="agrave" unicode="&#xe0;" horiz-adv-x="537" 
d="M384 180q0 -18 -9 -38.5t-28 -38t-49 -29t-72 -11.5q-20 0 -38 4t-31.5 13t-22 23.5t-8.5 35.5q0 24 8.5 40t22.5 26.5t33 16.5t40 10t43.5 6.5t42.5 6t38 8.5t30 14v-87zM522 68q-14 -5 -26 -5q-20 0 -23.5 14t-3.5 44v266q0 45 -17 73t-45 43.5t-62.5 20.5t-69.5 5
q-43 0 -82 -9t-69 -29.5t-48 -53.5t-20 -81h85q3 57 39 77.5t90 20.5q20 0 40.5 -3t37 -12t27 -26t10.5 -45q0 -24 -14 -36.5t-38 -19t-55.5 -10t-66.5 -10.5q-33 -6 -64.5 -15.5t-56 -26.5t-39.5 -45t-15 -72q0 -39 13.5 -66.5t36.5 -45t54.5 -25.5t66.5 -8q54 0 100.5 19
t81.5 61q0 -42 19.5 -61t52.5 -19q38 0 61 14v66zM266 588h64l-86 143h-109z" />
    <glyph glyph-name="aacute" unicode="&#xe1;" horiz-adv-x="537" 
d="M384 180q0 -18 -9 -38.5t-28 -38t-49 -29t-72 -11.5q-20 0 -38 4t-31.5 13t-22 23.5t-8.5 35.5q0 24 8.5 40t22.5 26.5t33 16.5t40 10t43.5 6.5t42.5 6t38 8.5t30 14v-87zM522 68q-14 -5 -26 -5q-20 0 -23.5 14t-3.5 44v266q0 45 -17 73t-45 43.5t-62.5 20.5t-69.5 5
q-43 0 -82 -9t-69 -29.5t-48 -53.5t-20 -81h85q3 57 39 77.5t90 20.5q20 0 40.5 -3t37 -12t27 -26t10.5 -45q0 -24 -14 -36.5t-38 -19t-55.5 -10t-66.5 -10.5q-33 -6 -64.5 -15.5t-56 -26.5t-39.5 -45t-15 -72q0 -39 13.5 -66.5t36.5 -45t54.5 -25.5t66.5 -8q54 0 100.5 19
t81.5 61q0 -42 19.5 -61t52.5 -19q38 0 61 14v66zM208 588h64l131 143h-109z" />
    <glyph glyph-name="acircumflex" unicode="&#xe2;" horiz-adv-x="537" 
d="M384 180q0 -18 -9 -38.5t-28 -38t-49 -29t-72 -11.5q-20 0 -38 4t-31.5 13t-22 23.5t-8.5 35.5q0 24 8.5 40t22.5 26.5t33 16.5t40 10t43.5 6.5t42.5 6t38 8.5t30 14v-87zM522 68q-14 -5 -26 -5q-20 0 -23.5 14t-3.5 44v266q0 45 -17 73t-45 43.5t-62.5 20.5t-69.5 5
q-43 0 -82 -9t-69 -29.5t-48 -53.5t-20 -81h85q3 57 39 77.5t90 20.5q20 0 40.5 -3t37 -12t27 -26t10.5 -45q0 -24 -14 -36.5t-38 -19t-55.5 -10t-66.5 -10.5q-33 -6 -64.5 -15.5t-56 -26.5t-39.5 -45t-15 -72q0 -39 13.5 -66.5t36.5 -45t54.5 -25.5t66.5 -8q54 0 100.5 19
t81.5 61q0 -42 19.5 -61t52.5 -19q38 0 61 14v66zM119 588h77l70 96l69 -96h84l-104 143h-93z" />
    <glyph glyph-name="atilde" unicode="&#xe3;" horiz-adv-x="537" 
d="M384 180q0 -18 -9 -38.5t-28 -38t-49 -29t-72 -11.5q-20 0 -38 4t-31.5 13t-22 23.5t-8.5 35.5q0 24 8.5 40t22.5 26.5t33 16.5t40 10t43.5 6.5t42.5 6t38 8.5t30 14v-87zM522 68q-14 -5 -26 -5q-20 0 -23.5 14t-3.5 44v266q0 45 -17 73t-45 43.5t-62.5 20.5t-69.5 5
q-43 0 -82 -9t-69 -29.5t-48 -53.5t-20 -81h85q3 57 39 77.5t90 20.5q20 0 40.5 -3t37 -12t27 -26t10.5 -45q0 -24 -14 -36.5t-38 -19t-55.5 -10t-66.5 -10.5q-33 -6 -64.5 -15.5t-56 -26.5t-39.5 -45t-15 -72q0 -39 13.5 -66.5t36.5 -45t54.5 -25.5t66.5 -8q54 0 100.5 19
t81.5 61q0 -42 19.5 -61t52.5 -19q38 0 61 14v66zM391 711q-5 -15 -15.5 -29.5t-30.5 -14.5q-16 0 -32.5 6t-33.5 14t-35.5 14t-38.5 6q-24 0 -41 -9t-29 -24t-20.5 -35t-14.5 -42h52q-1 9 3.5 17t11.5 13.5t16 8.5t17 3q14 0 31.5 -6t35.5 -13q18 -8 35.5 -14t30.5 -6
q29 0 47.5 8.5t31.5 22.5q25 36 31 80h-52z" />
    <glyph glyph-name="adieresis" unicode="&#xe4;" horiz-adv-x="537" 
d="M384 180q0 -18 -9 -38.5t-28 -38t-49 -29t-72 -11.5q-20 0 -38 4t-31.5 13t-22 23.5t-8.5 35.5q0 24 8.5 40t22.5 26.5t33 16.5t40 10t43.5 6.5t42.5 6t38 8.5t30 14v-87zM522 68q-14 -5 -26 -5q-20 0 -23.5 14t-3.5 44v266q0 45 -17 73t-45 43.5t-62.5 20.5t-69.5 5
q-43 0 -82 -9t-69 -29.5t-48 -53.5t-20 -81h85q3 57 39 77.5t90 20.5q20 0 40.5 -3t37 -12t27 -26t10.5 -45q0 -24 -14 -36.5t-38 -19t-55.5 -10t-66.5 -10.5q-33 -6 -64.5 -15.5t-56 -26.5t-39.5 -45t-15 -72q0 -39 13.5 -66.5t36.5 -45t54.5 -25.5t66.5 -8q54 0 100.5 19
t81.5 61q0 -42 19.5 -61t52.5 -19q38 0 61 14v66zM318 592h90v104h-90v-104zM130 592h90v104h-90v-104z" />
    <glyph glyph-name="aring" unicode="&#xe5;" horiz-adv-x="537" 
d="M384 180q0 -18 -9 -38.5t-28 -38t-49 -29t-72 -11.5q-20 0 -38 4t-31.5 13t-22 23.5t-8.5 35.5q0 24 8.5 40t22.5 26.5t33 16.5t40 10t43.5 6.5t42.5 6t38 8.5t30 14v-87zM522 68q-14 -5 -26 -5q-20 0 -23.5 14t-3.5 44v266q0 45 -17 73t-45 43.5t-62.5 20.5t-69.5 5
q-43 0 -82 -9t-69 -29.5t-48 -53.5t-20 -81h85q3 57 39 77.5t90 20.5q20 0 40.5 -3t37 -12t27 -26t10.5 -45q0 -24 -14 -36.5t-38 -19t-55.5 -10t-66.5 -10.5q-33 -6 -64.5 -15.5t-56 -26.5t-39.5 -45t-15 -72q0 -39 13.5 -66.5t36.5 -45t54.5 -25.5t66.5 -8q54 0 100.5 19
t81.5 61q0 -42 19.5 -61t52.5 -19q38 0 61 14v66zM201 662q0 29 19.5 48.5t48.5 19.5t48.5 -19.5t19.5 -48.5t-19.5 -48.5t-48.5 -19.5t-48.5 19.5t-19.5 48.5zM156 662q0 -23 9 -43.5t24.5 -36t36 -24.5t43.5 -9t43.5 9t36 24.5t24.5 36t9 43.5t-9 43.5t-24.5 36t-36 24.5
t-43.5 9t-43.5 -9t-36 -24.5t-24.5 -36t-9 -43.5z" />
    <glyph glyph-name="ae" unicode="&#xe6;" horiz-adv-x="870" 
d="M756 308h-289q0 31 10 58t29 46.5t46 30.5t61 11t60 -11.5t44.5 -31t28 -46.5t10.5 -57zM126 139q0 24 8.5 40t22.5 26.5t33 16.5t40 10q20 4 42.5 6.5t43.5 6.5t39.5 9t31.5 13v-87q0 -18 -9.5 -38.5t-29 -38t-50 -29t-72.5 -11.5q-20 0 -38 4t-31.5 13t-22 23.5
t-8.5 35.5zM846 233q0 60 -11 114t-38 94.5t-72 64t-112 23.5q-47 0 -93 -17.5t-72 -57.5q-12 24 -32 39t-44 23t-49.5 10.5t-47.5 2.5q-43 0 -82 -9t-69 -29.5t-48 -53.5t-20 -81h85q3 57 39 77.5t90 20.5q21 0 42 -2.5t37.5 -11t27 -24.5t10.5 -42q0 -23 -10 -35.5
t-31 -20t-54.5 -12.5t-80.5 -14q-33 -6 -64.5 -15.5t-56 -26.5t-39.5 -45t-15 -72q0 -39 13.5 -66.5t37 -45t55.5 -25.5t69 -8q72 0 130.5 24t87.5 77q13 -29 32.5 -48.5t44 -31t52.5 -16.5t58 -5q87 0 146 45t78 130h-87q-12 -51 -47.5 -75.5t-83.5 -24.5q-39 0 -68.5 13.5
t-48.5 37t-28.5 54t-9.5 65.5h379z" />
    <glyph glyph-name="ccedilla" unicode="&#xe7;" horiz-adv-x="537" 
d="M503 351q-5 46 -23.5 79.5t-48.5 55.5t-68.5 32.5t-82.5 10.5q-62 0 -107.5 -21.5t-76 -59t-45.5 -88t-15 -108.5q0 -54 14 -100.5t41 -81t67.5 -55.5t93.5 -25l-53 -68l17 -28q11 4 20 6t21 2q20 0 33.5 -8.5t13.5 -22.5q0 -9 -6 -14.5t-15 -9.5t-20 -5.5t-21 -1.5
q-16 0 -32.5 4t-28.5 9l-18 -44q23 -8 45.5 -13.5t46.5 -5.5q21 0 43 4.5t40 15t29.5 27.5t11.5 42q0 18 -7 32t-19 23t-27 13.5t-31 4.5q-23 0 -33 -7l-2 2l33 42q91 4 145 56.5t68 143.5h-87q-8 -59 -44 -92.5t-98 -33.5q-41 0 -69.5 16t-46.5 42.5t-26.5 60.5t-8.5 70
q0 39 8 75.5t26.5 64.5t49.5 45t77 17q53 0 85.5 -27t42.5 -76h88z" />
    <glyph glyph-name="egrave" unicode="&#xe8;" horiz-adv-x="537" 
d="M421 164q-11 -51 -46 -76t-88 -25q-42 0 -73 14t-51 37.5t-29 54t-8 64.5h387q2 47 -8.5 99t-38 96t-73 72.5t-114.5 28.5q-53 0 -97.5 -20t-77 -56t-50.5 -85.5t-18 -107.5q2 -59 17.5 -109t46.5 -86t76.5 -56.5t107.5 -20.5q88 0 146 45t75 131h-84zM126 308
q2 30 13 56.5t30 46.5t45.5 31.5t59.5 11.5q31 0 58 -11.5t46.5 -31t31 -46.5t13.5 -57h-297zM266 588h64l-86 143h-109z" />
    <glyph glyph-name="eacute" unicode="&#xe9;" horiz-adv-x="537" 
d="M421 164q-11 -51 -46 -76t-88 -25q-42 0 -73 14t-51 37.5t-29 54t-8 64.5h387q2 47 -8.5 99t-38 96t-73 72.5t-114.5 28.5q-53 0 -97.5 -20t-77 -56t-50.5 -85.5t-18 -107.5q2 -59 17.5 -109t46.5 -86t76.5 -56.5t107.5 -20.5q88 0 146 45t75 131h-84zM126 308
q2 30 13 56.5t30 46.5t45.5 31.5t59.5 11.5q31 0 58 -11.5t46.5 -31t31 -46.5t13.5 -57h-297zM208 588h64l131 143h-109z" />
    <glyph glyph-name="ecircumflex" unicode="&#xea;" horiz-adv-x="537" 
d="M421 164q-11 -51 -46 -76t-88 -25q-42 0 -73 14t-51 37.5t-29 54t-8 64.5h387q2 47 -8.5 99t-38 96t-73 72.5t-114.5 28.5q-53 0 -97.5 -20t-77 -56t-50.5 -85.5t-18 -107.5q2 -59 17.5 -109t46.5 -86t76.5 -56.5t107.5 -20.5q88 0 146 45t75 131h-84zM126 308
q2 30 13 56.5t30 46.5t45.5 31.5t59.5 11.5q31 0 58 -11.5t46.5 -31t31 -46.5t13.5 -57h-297zM119 588h77l70 96l69 -96h84l-104 143h-93z" />
    <glyph glyph-name="edieresis" unicode="&#xeb;" horiz-adv-x="537" 
d="M421 164q-11 -51 -46 -76t-88 -25q-42 0 -73 14t-51 37.5t-29 54t-8 64.5h387q2 47 -8.5 99t-38 96t-73 72.5t-114.5 28.5q-53 0 -97.5 -20t-77 -56t-50.5 -85.5t-18 -107.5q2 -59 17.5 -109t46.5 -86t76.5 -56.5t107.5 -20.5q88 0 146 45t75 131h-84zM126 308
q2 30 13 56.5t30 46.5t45.5 31.5t59.5 11.5q31 0 58 -11.5t46.5 -31t31 -46.5t13.5 -57h-297zM318 592h90v104h-90v-104zM130 592h90v104h-90v-104z" />
    <glyph glyph-name="igrave" unicode="&#xec;" horiz-adv-x="222" 
d="M154 0v517h-85v-517h85zM108 588h64l-86 143h-109z" />
    <glyph glyph-name="iacute" unicode="&#xed;" horiz-adv-x="222" 
d="M154 0v517h-85v-517h85zM50 588h64l131 143h-109z" />
    <glyph glyph-name="icircumflex" unicode="&#xee;" horiz-adv-x="222" 
d="M154 0v517h-85v-517h85zM-39 588h77l70 96l69 -96h84l-104 143h-93z" />
    <glyph glyph-name="idieresis" unicode="&#xef;" horiz-adv-x="222" 
d="M154 0v517h-85v-517h85zM160 592h90v104h-90v-104zM-28 592h90v104h-90v-104z" />
    <glyph glyph-name="eth" unicode="&#xf0;" horiz-adv-x="574" 
d="M272 506q-57 0 -101 -20.5t-74 -55t-45.5 -79t-15.5 -93.5q0 -57 16 -106t48 -85.5t78.5 -57.5t108.5 -21q61 0 108 21t79 57.5t48 85.5t16 106q0 115 -42 212t-132 171l115 53l-35 37l-120 -56q-20 16 -41.5 31l-35.5 25l-70 -45q14 -8 34 -21t36 -27l-109 -51l38 -40
l115 54q12 -8 28 -23t33 -35t33 -43.5t28 -49.5h-2q-27 31 -63 43.5t-76 12.5zM282 431q44 0 75.5 -14t51.5 -38t29.5 -55.5t9.5 -65.5q0 -47 -12.5 -83.5t-34.5 -61t-51.5 -37.5t-62.5 -13t-62.5 13t-51.5 37.5t-34.5 61t-12.5 83.5q0 77 39.5 125t116.5 48z" />
    <glyph glyph-name="ntilde" unicode="&#xf1;" 
d="M64 0h85v292q0 35 9.5 64.5t28.5 51.5t47.5 34t67.5 12q49 0 77 -28t28 -76v-350h85v340q0 42 -8.5 76.5t-29.5 59.5t-55 39t-85 14q-56 0 -98.5 -23t-69.5 -71h-2v82h-80v-517zM400 711q-5 -15 -15.5 -29.5t-30.5 -14.5q-16 0 -32.5 6t-33.5 14t-35.5 14t-38.5 6
q-24 0 -41 -9t-29 -24t-20.5 -35t-14.5 -42h52q-1 9 3.5 17t11.5 13.5t16 8.5t17 3q14 0 31.5 -6t35.5 -13q18 -8 35.5 -14t30.5 -6q29 0 47.5 8.5t31.5 22.5q25 36 31 80h-52z" />
    <glyph glyph-name="ograve" unicode="&#xf2;" horiz-adv-x="574" 
d="M36 258q0 -57 16 -106t48 -85.5t78.5 -57.5t108.5 -21q61 0 108 21t79 57.5t48 85.5t16 106t-16 106.5t-48 86t-79 57.5t-108 21q-62 0 -108.5 -21t-78.5 -57.5t-48 -86t-16 -106.5zM126 258q0 47 12.5 83.5t34.5 61.5t51.5 38t62.5 13t62.5 -13t51.5 -38t34.5 -61.5
t12.5 -83.5t-12.5 -83.5t-34.5 -61t-51.5 -37.5t-62.5 -13t-62.5 13t-51.5 37.5t-34.5 61t-12.5 83.5zM284 588h64l-86 143h-109z" />
    <glyph glyph-name="oacute" unicode="&#xf3;" horiz-adv-x="574" 
d="M36 258q0 -57 16 -106t48 -85.5t78.5 -57.5t108.5 -21q61 0 108 21t79 57.5t48 85.5t16 106t-16 106.5t-48 86t-79 57.5t-108 21q-62 0 -108.5 -21t-78.5 -57.5t-48 -86t-16 -106.5zM126 258q0 47 12.5 83.5t34.5 61.5t51.5 38t62.5 13t62.5 -13t51.5 -38t34.5 -61.5
t12.5 -83.5t-12.5 -83.5t-34.5 -61t-51.5 -37.5t-62.5 -13t-62.5 13t-51.5 37.5t-34.5 61t-12.5 83.5zM226 588h64l131 143h-109z" />
    <glyph glyph-name="ocircumflex" unicode="&#xf4;" horiz-adv-x="574" 
d="M36 258q0 -57 16 -106t48 -85.5t78.5 -57.5t108.5 -21q61 0 108 21t79 57.5t48 85.5t16 106t-16 106.5t-48 86t-79 57.5t-108 21q-62 0 -108.5 -21t-78.5 -57.5t-48 -86t-16 -106.5zM126 258q0 47 12.5 83.5t34.5 61.5t51.5 38t62.5 13t62.5 -13t51.5 -38t34.5 -61.5
t12.5 -83.5t-12.5 -83.5t-34.5 -61t-51.5 -37.5t-62.5 -13t-62.5 13t-51.5 37.5t-34.5 61t-12.5 83.5zM137 588h77l70 96l69 -96h84l-104 143h-93z" />
    <glyph glyph-name="otilde" unicode="&#xf5;" horiz-adv-x="574" 
d="M36 258q0 -57 16 -106t48 -85.5t78.5 -57.5t108.5 -21q61 0 108 21t79 57.5t48 85.5t16 106t-16 106.5t-48 86t-79 57.5t-108 21q-62 0 -108.5 -21t-78.5 -57.5t-48 -86t-16 -106.5zM126 258q0 47 12.5 83.5t34.5 61.5t51.5 38t62.5 13t62.5 -13t51.5 -38t34.5 -61.5
t12.5 -83.5t-12.5 -83.5t-34.5 -61t-51.5 -37.5t-62.5 -13t-62.5 13t-51.5 37.5t-34.5 61t-12.5 83.5zM409 711q-5 -15 -15.5 -29.5t-30.5 -14.5q-16 0 -32.5 6t-33.5 14t-35.5 14t-38.5 6q-24 0 -41 -9t-29 -24t-20.5 -35t-14.5 -42h52q-1 9 3.5 17t11.5 13.5t16 8.5t17 3
q14 0 31.5 -6t35.5 -13q18 -8 35.5 -14t30.5 -6q29 0 47.5 8.5t31.5 22.5q25 36 31 80h-52z" />
    <glyph glyph-name="odieresis" unicode="&#xf6;" horiz-adv-x="574" 
d="M36 258q0 -57 16 -106t48 -85.5t78.5 -57.5t108.5 -21q61 0 108 21t79 57.5t48 85.5t16 106t-16 106.5t-48 86t-79 57.5t-108 21q-62 0 -108.5 -21t-78.5 -57.5t-48 -86t-16 -106.5zM126 258q0 47 12.5 83.5t34.5 61.5t51.5 38t62.5 13t62.5 -13t51.5 -38t34.5 -61.5
t12.5 -83.5t-12.5 -83.5t-34.5 -61t-51.5 -37.5t-62.5 -13t-62.5 13t-51.5 37.5t-34.5 61t-12.5 83.5zM336 592h90v104h-90v-104zM148 592h90v104h-90v-104z" />
    <glyph glyph-name="divide" unicode="&#xf7;" horiz-adv-x="600" 
d="M48 219h504v68h-504v-68zM236 459q0 -26 19.5 -45t45.5 -19q25 0 44 20t19 44q0 26 -19 45t-45 19t-45 -19t-19 -45zM236 47q0 -26 19.5 -45t45.5 -19q25 0 44 20t19 44q0 26 -19 45t-45 19t-45 -19t-19 -45z" />
    <glyph glyph-name="oslash" unicode="&#xf8;" horiz-adv-x="574" 
d="M156 137q-14 25 -22 55t-8 66q0 47 12.5 83.5t34.5 61.5t51.5 38t62.5 13q67 0 111 -47zM420 377q13 -23 20.5 -52.5t7.5 -66.5q0 -47 -12.5 -83.5t-34.5 -61t-51.5 -37.5t-62.5 -13q-64 0 -109 45zM540 509l-27 26l-58 -65q-32 29 -73.5 44t-94.5 15q-62 0 -108.5 -21
t-78.5 -57.5t-48 -86t-16 -106.5q0 -55 15 -102.5t45 -84.5l-62 -69l28 -24l60 67q31 -27 72 -42t93 -15q61 0 108 21t79 57.5t48 85.5t16 106q0 55 -14.5 102.5t-43.5 82.5z" />
    <glyph glyph-name="ugrave" unicode="&#xf9;" 
d="M492 517h-85v-292q0 -35 -9.5 -64.5t-28.5 -51.5t-47.5 -34t-67.5 -12q-49 0 -77 28t-28 76v350h-85v-340q0 -42 8.5 -76.5t29.5 -59.5t55 -39t85 -14q56 0 98.5 23t69.5 71h2v-82h80v517zM275 588h64l-86 143h-109z" />
    <glyph glyph-name="uacute" unicode="&#xfa;" 
d="M492 517h-85v-292q0 -35 -9.5 -64.5t-28.5 -51.5t-47.5 -34t-67.5 -12q-49 0 -77 28t-28 76v350h-85v-340q0 -42 8.5 -76.5t29.5 -59.5t55 -39t85 -14q56 0 98.5 23t69.5 71h2v-82h80v517zM217 588h64l131 143h-109z" />
    <glyph glyph-name="ucircumflex" unicode="&#xfb;" 
d="M492 517h-85v-292q0 -35 -9.5 -64.5t-28.5 -51.5t-47.5 -34t-67.5 -12q-49 0 -77 28t-28 76v350h-85v-340q0 -42 8.5 -76.5t29.5 -59.5t55 -39t85 -14q56 0 98.5 23t69.5 71h2v-82h80v517zM128 588h77l70 96l69 -96h84l-104 143h-93z" />
    <glyph glyph-name="udieresis" unicode="&#xfc;" 
d="M492 517h-85v-292q0 -35 -9.5 -64.5t-28.5 -51.5t-47.5 -34t-67.5 -12q-49 0 -77 28t-28 76v350h-85v-340q0 -42 8.5 -76.5t29.5 -59.5t55 -39t85 -14q56 0 98.5 23t69.5 71h2v-82h80v517zM327 592h90v104h-90v-104zM139 592h90v104h-90v-104z" />
    <glyph glyph-name="yacute" unicode="&#xfd;" horiz-adv-x="500" 
d="M492 517h-90l-145 -423h-2l-151 423h-96l205 -514l-35 -88q-12 -23 -28 -35t-42 -12q-13 0 -25.5 4l-24.5 8v-78q14 -5 29 -7t30 -2q28 0 50 7.5t39 24t31.5 42.5t29.5 64zM189 588h64l131 143h-109z" />
    <glyph glyph-name="thorn" unicode="&#xfe;" horiz-adv-x="593" 
d="M467 263q0 -38 -8 -74t-26 -64t-48 -45t-73 -17q-44 0 -75 16.5t-50.5 43.5t-28.5 62.5t-9 73.5q0 36 8.5 71t27.5 62.5t49 44.5t73 17q41 0 71.5 -16t50 -43t29 -61.5t9.5 -70.5zM152 714h-85v-912h85v267h2q14 -23 34.5 -38.5t43.5 -25t46 -13.5t43 -4q59 0 103.5 21.5
t74 58t44 85.5t14.5 104t-15 104t-44.5 86.5t-74 59.5t-104.5 22q-54 0 -99 -19.5t-66 -62.5h-2v267z" />
    <glyph glyph-name="ydieresis" unicode="&#xff;" horiz-adv-x="500" 
d="M492 517h-90l-145 -423h-2l-151 423h-96l205 -514l-35 -88q-12 -23 -28 -35t-42 -12q-13 0 -25.5 4l-24.5 8v-78q14 -5 29 -7t30 -2q28 0 50 7.5t39 24t31.5 42.5t29.5 64zM299 592h90v104h-90v-104zM111 592h90v104h-90v-104z" />
    <glyph glyph-name="Euro" 
d="M558 662q-23 16 -43.5 27.5t-41.5 19.5t-44.5 12t-51.5 4q-62 0 -110 -22t-83 -59.5t-57.5 -87.5t-33.5 -106h-54l-26 -61h73q-1 -8 -1 -16v-16v-10t1 -10h-46l-27 -61h77q9 -62 29.5 -115.5t55 -93t84.5 -62t118 -22.5q46 0 80.5 9.5t73.5 35.5v105q-36 -34 -69.5 -53
t-84.5 -19q-47 0 -80 18.5t-55.5 49t-35.5 69t-19 78.5h218l26 61h-249q-1 5 -1 10v11v15q0 8 1 16h263l27 61h-283q7 35 20.5 70.5t35.5 64t52.5 46t71.5 17.5q47 0 79 -18.5t64 -50.5z" />
    <glyph glyph-name="Euro" unicode="&#x20ac;" 
d="M558 662q-23 16 -43.5 27.5t-41.5 19.5t-44.5 12t-51.5 4q-62 0 -110 -22t-83 -59.5t-57.5 -87.5t-33.5 -106h-54l-26 -61h73q-1 -8 -1 -16v-16v-10t1 -10h-46l-27 -61h77q9 -62 29.5 -115.5t55 -93t84.5 -62t118 -22.5q46 0 80.5 9.5t73.5 35.5v105q-36 -34 -69.5 -53
t-84.5 -19q-47 0 -80 18.5t-55.5 49t-35.5 69t-19 78.5h218l26 61h-249q-1 5 -1 10v11v15q0 8 1 16h263l27 61h-283q7 35 20.5 70.5t35.5 64t52.5 46t71.5 17.5q47 0 79 -18.5t64 -50.5z" />
    <glyph glyph-name="fi" unicode="&#xfb01;" horiz-adv-x="518" 
d="M99 0h85v442h100v75h-100v72q0 34 17 46t48 12q11 0 24 -1.5t24 -5.5v74q-12 4 -27.5 6t-27.5 2q-70 0 -106.5 -32.5t-36.5 -95.5v-77h-87v-75h87v-442zM364 0h85v517h-85v-517zM449 714h-85v-104h85v104z" />
    <glyph glyph-name="fl" unicode="&#xfb02;" horiz-adv-x="518" 
d="M99 0h85v442h100v75h-100v72q0 34 17 46t48 12q11 0 24 -1.5t24 -5.5v74q-12 4 -27.5 6t-27.5 2q-70 0 -106.5 -32.5t-36.5 -95.5v-77h-87v-75h87v-442zM364 0h85v714h-85v-714z" />
    <glyph glyph-name="breve" unicode="&#x2d8;" horiz-adv-x="222" 
d="M-45 731q10 -67 47.5 -102.5t106.5 -35.5q66 0 106.5 37t51.5 101h-51q-15 -38 -35.5 -60.5t-63.5 -22.5q-88 0 -112 83h-50z" />
    <glyph glyph-name="dotaccent" unicode="&#x2d9;" horiz-adv-x="222" 
d="M156 696h-90v-104h90v104z" />
    <glyph glyph-name="ring" unicode="&#x2da;" horiz-adv-x="222" 
d="M43 662q0 29 19.5 48.5t48.5 19.5t48.5 -19.5t19.5 -48.5t-19.5 -48.5t-48.5 -19.5t-48.5 19.5t-19.5 48.5zM-2 662q0 -23 9 -43.5t24.5 -36t36 -24.5t43.5 -9t43.5 9t36 24.5t24.5 36t9 43.5t-9 43.5t-24.5 36t-36 24.5t-43.5 9t-43.5 -9t-36 -24.5t-24.5 -36t-9 -43.5z
" />
    <glyph glyph-name="hungarumlaut" unicode="&#x2dd;" horiz-adv-x="222" 
d="M-48 588h66l120 143h-105zM108 588h66l120 143h-105z" />
    <glyph glyph-name="ogonek" unicode="&#x2db;" horiz-adv-x="222" 
d="M190 3q-38 -23 -60.5 -43.5t-34.5 -38t-15.5 -30t-3.5 -19.5q0 -30 11 -46.5t26 -24.5t30.5 -9.5t24.5 -1.5q31 0 59.5 13.5t48.5 48.5l-32 18q-11 -14 -25 -22t-37 -8q-20 0 -29 13t-9 29q0 10 3.5 22.5t13 27t26.5 32t43 39.5h-40z" />
    <glyph glyph-name="caron" unicode="&#x2c7;" horiz-adv-x="222" 
d="M261 731h-77l-70 -96l-69 96h-84l104 -143h93z" />
    <glyph glyph-name="dotlessi" unicode="&#x131;" horiz-adv-x="222" 
d="M154 0v517h-85v-517h85z" />
    <glyph glyph-name="fraction" unicode="&#x2215;" horiz-adv-x="167" 
d="M-166 -28h64l435 753h-64z" />
    <glyph glyph-name="Lslash" unicode="&#x141;" 
d="M78 0h473v80h-378v228l228 160v76l-228 -160v330h-95v-398l-79 -56v-76l79 56v-240z" />
    <glyph glyph-name="lslash" unicode="&#x142;" horiz-adv-x="222" 
d="M69 0h85v389l70 56v71l-70 -56v254h-85v-321l-70 -56v-71l70 55v-321z" />
    <glyph glyph-name="minus" unicode="&#x2212;" horiz-adv-x="600" 
d="M48 219h504v68h-504v-68z" />
    <glyph glyph-name="nonbreakingspace" horiz-adv-x="278" 
 />
    </font>
</defs>
</svg>
